<?xml version="1.0" standalone="no"?>
<!DOCTYPE svg PUBLIC "-//W3C//DTD SVG 1.1//EN" "http://www.w3.org/Graphics/SVG/1.1/DTD/svg11.dtd" >
<svg>
<metadata>
Created by FontForge 20090622 at Tue Feb  6 22:45:03 2018
 By deploy user
Copyright &#194;&#169; 2012 by Librerias Gandhi S.A. de C.V. All rights reserved.
</metadata>
<defs>
<font id="GandhiSans-Italic" horiz-adv-x="550" >
  <font-face 
    font-family="Gandhi Sans"
    font-weight="400"
    font-style="italic"
    font-stretch="normal"
    units-per-em="1000"
    panose-1="2 0 0 0 0 0 0 0 0 0"
    ascent="765"
    descent="-235"
    x-height="474"
    cap-height="670"
    bbox="-197 -235 3525 905"
    underline-thickness="50"
    underline-position="-50"
    slope="-10"
    unicode-range="U+0020-U+FB02"
  />
<missing-glyph 
d="M95 -235v1000h390v-1000h-390z" />
    <glyph glyph-name=".notdef" 
d="M95 -235v1000h390v-1000h-390z" />
    <glyph glyph-name=".null" horiz-adv-x="0" 
 />
    <glyph glyph-name="nonmarkingreturn" horiz-adv-x="333" 
 />
    <glyph glyph-name="space" unicode=" " horiz-adv-x="220" 
 />
    <glyph glyph-name="exclam" unicode="!" horiz-adv-x="240" 
d="M132 194h-43l43 476h116zM25 43q0 26 18 45.5t45 19.5t42.5 -17t15.5 -41q0 -29 -19.5 -46.5t-44.5 -17.5t-41 17t-16 40z" />
    <glyph glyph-name="quotedbl" unicode="&#x22;" horiz-adv-x="373" 
d="M151 422h-41l18 224h83zM301 422h-41l18 224h83z" />
    <glyph glyph-name="numbersign" unicode="#" 
d="M63 373l9 51h128l53 162h53l-53 -162h138l53 162h53l-53 -162h110l-9 -51h-117l-44 -135h124l-9 -51h-132l-52 -162h-53l52 162h-138l-52 -162h-53l52 162h-106l9 51h114l44 135h-121zM237 373l-44 -135h138l44 135h-138z" />
    <glyph glyph-name="dollar" unicode="$" 
d="M477 182q0 -80 -56.5 -132.5t-155.5 -61.5l-18 -102h-51l17 100q-50 2 -99 16.5t-77 32.5l24 69q72 -50 164 -51l44 249l-24 15q-56 33 -84.5 67t-28.5 86q0 86 57 133t145 54l19 108h51l-19 -107q70 -3 140 -32l-24 -70q-51 28 -128 33l-40 -230q43 -26 69.5 -46
t50.5 -55.5t24 -75.5zM396 165q0 31 -20 56t-61 52l-38 -217q54 9 86.5 36.5t32.5 72.5zM212 477q0 -30 18.5 -50t55.5 -41l35 200q-48 -7 -78.5 -33.5t-30.5 -75.5z" />
    <glyph glyph-name="percent" unicode="%" horiz-adv-x="782" 
d="M226 343q-61 0 -95 33.5t-34 91.5q0 85 48 138.5t126 53.5q62 0 95.5 -33.5t33.5 -91.5q0 -85 -48 -138.5t-126 -53.5zM232 393q43 0 74 37t31 103q0 77 -72 77q-44 0 -75 -37t-31 -103q0 -77 73 -77zM544 -14q-61 0 -95 33.5t-34 91.5q0 85 48 138.5t126 53.5
q62 0 95.5 -33.5t33.5 -91.5q0 -85 -48 -138.5t-126 -53.5zM550 36q43 0 74 37t31 103q0 77 -72 77q-44 0 -75 -37t-31 -103q0 -77 73 -77zM136 -14l-42 37l586 637l42 -37z" />
    <glyph glyph-name="ampersand" unicode="&#x26;" horiz-adv-x="657" 
d="M511 -7q-34 0 -55.5 14t-41.5 49q-93 -70 -209 -70q-71 0 -118 41t-47 109q0 150 196 231q-42 73 -42 126q0 70 46.5 115t122.5 45q66 0 108 -32.5t42 -90.5q0 -66 -50.5 -112.5t-126.5 -74.5l102 -177q74 93 98 195h71q-14 -64 -50.5 -134t-84.5 -120q18 -30 29.5 -37
t43.5 -7h17v-63q-35 -7 -51 -7zM218 50q86 0 164 63l-117 204q-64 -27 -108 -71t-44 -103q0 -44 27 -68.5t78 -24.5zM265 495q0 -30 43 -105q51 19 91.5 53t40.5 79q0 33 -23 51.5t-59 18.5q-37 0 -65 -23.5t-28 -73.5z" />
    <glyph glyph-name="quotesingle" unicode="'" horiz-adv-x="223" 
d="M151 422h-41l18 224h83z" />
    <glyph glyph-name="parenleft" unicode="(" horiz-adv-x="447" 
d="M468 735q-149 -82 -239.5 -215.5t-90.5 -293.5q0 -224 182 -334l-28 -50q-110 57 -170 157t-60 219q0 181 102.5 332.5t277.5 235.5z" />
    <glyph glyph-name="parenright" unicode=")" horiz-adv-x="447" 
d="M-8 -107q149 82 239.5 215.5t90.5 293.5q0 224 -182 334l28 50q110 -57 170 -157t60 -219q0 -181 -102.5 -332.5t-277.5 -235.5z" />
    <glyph glyph-name="asterisk" unicode="*" horiz-adv-x="432" 
d="M257 670h63l-40 -151l136 84l28 -53l-151 -65l127 -65l-37 -53l-112 88l-15 -152h-63l40 151l-136 -84l-28 53l151 65l-127 65l37 53l112 -88z" />
    <glyph glyph-name="plus" unicode="+" 
d="M515 278h-198v-197h-54v197h-198v52h198v196h54v-196h198v-52z" />
    <glyph glyph-name="comma" unicode="," horiz-adv-x="250" 
d="M4 -142l-31 36q90 73 90 180v28h87v-19q0 -132 -146 -225z" />
    <glyph glyph-name="hyphen" unicode="-" horiz-adv-x="350" 
d="M31 220l11 60h280l-11 -60h-280z" />
    <glyph glyph-name="period" unicode="." horiz-adv-x="250" 
d="M156 51q0 -26 -18 -45.5t-45 -19.5t-42.5 17t-15.5 41q0 29 19.5 46.5t44.5 17.5t41 -17t16 -40z" />
    <glyph glyph-name="slash" unicode="/" horiz-adv-x="536" 
d="M577 775l-576 -1010h-62l575 1010h63z" />
    <glyph glyph-name="zero" unicode="0" 
d="M238 50q55 0 98 37.5t67 96t36 121t12 121.5q0 94 -27 132t-84 38q-55 0 -97.5 -38.5t-65.5 -98t-34.5 -121t-11.5 -118.5q0 -170 107 -170zM232 -14q-84 0 -131.5 63t-47.5 172q0 72 18 146.5t52 141t93.5 109t134.5 42.5q89 0 133.5 -61.5t44.5 -170.5q0 -75 -17 -149
t-50.5 -141.5t-93.5 -109.5t-136 -42z" />
    <glyph glyph-name="one" unicode="1" 
d="M443 0h-370l11 56l150 4l92 515l-154 -16l10 56l189 37h44l-104 -592l143 -4z" />
    <glyph glyph-name="two" unicode="2" 
d="M16 0v31l85 70l74.5 63t72 64l58 57t52 58.5l34.5 52t26 55t7 50.5q0 45 -25 68t-66 23q-91 0 -185 -76l-34 58q107 86 223 86q78 0 122.5 -37.5t44.5 -114.5q0 -34 -13 -71t-29.5 -68t-49 -69t-55.5 -62.5t-65.5 -62l-61.5 -53.5l-61 -50h284l-16 -72h-422z" />
    <glyph glyph-name="three" unicode="3" 
d="M465 187q0 -89 -66 -145t-157 -56q-119 0 -208 77l42 53q76 -64 166 -64q61 0 102 33t41 95q0 34 -17.5 58t-47 35t-56 15t-55.5 4h-41l11 63q102 6 169.5 46t67.5 107q0 39 -29 61.5t-68 22.5q-77 0 -158 -69l-31 54q38 36 93 59.5t112 23.5q70 0 115 -39.5t45 -103.5
q0 -65 -41.5 -112.5t-108.5 -71.5q51 -13 85.5 -52t34.5 -94z" />
    <glyph glyph-name="four" unicode="4" 
d="M484 652l-71 -400h111l-12 -67h-111l-32 -185h-77l34 185h-305v32l410 435h53zM386 510l-240 -258h192z" />
    <glyph glyph-name="five" unicode="5" 
d="M480 202q0 -97 -70.5 -156.5t-168.5 -59.5q-127 0 -203 74l48 55q26 -27 67 -44t83 -17q74 0 119 38.5t45 102.5q0 65 -53 92.5t-130 27.5h-105l88 331h317l-16 -71h-249l-48 -190h35q103 0 172 -45.5t69 -137.5z" />
    <glyph glyph-name="six" unicode="6" 
d="M519 596q-255 -54 -346 -228q71 34 146 34q81 0 130 -46.5t49 -118.5q0 -103 -73 -177t-180 -74q-89 0 -139.5 58.5t-50.5 150.5t37.5 173t101 139.5t144.5 97.5t171 55zM305 333q-81 0 -161 -41q-11 -41 -11 -92q0 -71 30 -109.5t85 -38.5q68 0 119 49.5t51 124.5
q0 53 -30 80t-83 27z" />
    <glyph glyph-name="seven" unicode="7" 
d="M67 0l394 574h-336l17 72h415v-45l-404 -601h-86z" />
    <glyph glyph-name="eight" unicode="8" 
d="M45 146q0 124 170 196q-89 57 -89 135q0 82 63 132.5t154 50.5q77 0 128 -39t51 -104q0 -63 -46 -108.5t-112 -68.5q53 -33 83 -70.5t30 -90.5q0 -85 -62.5 -139t-173.5 -54q-81 0 -138.5 44t-57.5 116zM399 171q0 37 -32.5 70t-91.5 67q-150 -49 -150 -156
q0 -45 36.5 -73.5t88.5 -28.5q64 0 106.5 34t42.5 87zM205 484q0 -30 22.5 -52.5t74.5 -54.5q55 13 99 48t44 86q0 40 -30.5 62t-80.5 22q-54 0 -91.5 -29.5t-37.5 -81.5z" />
    <glyph glyph-name="nine" unicode="9" 
d="M59 50q255 55 345 227q-68 -33 -145 -33q-81 0 -130 46.5t-49 118.5q0 103 73 177t180 74q89 0 139.5 -58.5t50.5 -150.5t-37.5 -173t-101 -139.5t-144.5 -97.5t-171 -55zM273 313q83 0 161 40q11 47 11 93q0 71 -30 109.5t-85 38.5q-68 0 -119 -49.5t-51 -124.5
q0 -53 30 -80t83 -27z" />
    <glyph glyph-name="colon" unicode=":" horiz-adv-x="250" 
d="M156 51q0 -26 -18 -45.5t-45 -19.5t-42.5 17t-15.5 41q0 29 19.5 46.5t44.5 17.5t41 -17t16 -40zM210 361q0 -26 -18 -45.5t-45 -19.5t-42.5 17t-15.5 41q0 29 19.5 46.5t44.5 17.5t41 -17t16 -40z" />
    <glyph glyph-name="semicolon" unicode=";" horiz-adv-x="250" 
d="M210 361q0 -26 -18 -45.5t-45 -19.5t-42.5 17t-15.5 41q0 29 19.5 46.5t44.5 17.5t41 -17t16 -40zM4 -142l-31 36q90 73 90 180v28h87v-19q0 -132 -146 -225z" />
    <glyph glyph-name="less" unicode="&#x3c;" 
d="M95 280v50l366 195l27 -49l-324 -171l324 -171l-27 -49z" />
    <glyph glyph-name="equal" unicode="=" 
d="M515 183h-450v52h450v-52zM515 373h-450v52h450v-52z" />
    <glyph glyph-name="greater" unicode="&#x3e;" 
d="M488 327v-50l-366 -195l-27 49l324 171l-324 171l27 49z" />
    <glyph glyph-name="question" unicode="?" horiz-adv-x="410" 
d="M123 214v37q0 37 16 70t40.5 55t53 44.5l53 41t40.5 42.5t16 49q0 29 -21 47t-57 18q-63 0 -128 -41l-27 55q35 25 80 38.5t81 13.5q73 0 112 -34.5t39 -86.5q0 -46 -23.5 -82t-57.5 -61l-68 -48.5t-57.5 -57t-23.5 -74.5v-26h-68zM206 51q0 -26 -18 -45.5t-45 -19.5
q-26 0 -41.5 17t-15.5 41q0 29 19.5 46.5t44.5 17.5t40.5 -17t15.5 -40z" />
    <glyph glyph-name="at" unicode="@" horiz-adv-x="961" 
d="M604 -14q-61 0 -61 42q0 10 5 42q-34 -39 -75.5 -61.5t-77.5 -22.5q-63 0 -96.5 46t-33.5 125q0 138 71.5 234.5t186.5 96.5q85 0 156 -46l-55 -329q-7 -42 -7 -51q0 -21 32 -21q92 0 157 91t65 218q0 65 -20.5 115.5t-52.5 80.5t-76 49t-86 25.5t-88 6.5
q-141 0 -244.5 -70t-153 -180t-49.5 -242q0 -147 88.5 -231t253.5 -85q80 0 163.5 27t149.5 70l20 -40q-66 -44 -161.5 -72t-181.5 -28q-191 1 -287 103t-96 261q0 102 32 195.5t92.5 169t158.5 120.5t220 45q52 0 101 -9t98.5 -32t86 -57.5t59.5 -90t23 -124.5
q0 -56 -11.5 -109t-37 -101t-62 -83.5t-89.5 -56.5t-117 -21zM409 52q37 0 79.5 35.5t72.5 81.5l40 237q-28 21 -81 21q-78 0 -130 -76.5t-52 -187.5t71 -111z" />
    <glyph glyph-name="A" unicode="A" horiz-adv-x="641" 
d="M482 0l-38 192h-257l-103 -192h-93l377 670h51l153 -670h-90zM375 539l-151 -279h206z" />
    <glyph glyph-name="B" unicode="B" horiz-adv-x="569" 
d="M178 319l-45 -252h126q76 0 122.5 37.5t46.5 111.5q0 50 -39.5 76.5t-112.5 26.5h-98zM228 603l-38 -217h77q73 0 125 35.5t52 97.5q0 48 -28 66t-85 18h-103zM42 0l118 670h184q89 0 134.5 -36t45.5 -102q0 -126 -123 -172q52 -12 80.5 -49t28.5 -91q0 -100 -63.5 -160
t-167.5 -60h-237z" />
    <glyph glyph-name="C" unicode="C" horiz-adv-x="633" 
d="M342 -14q-130 0 -203.5 80.5t-73.5 209.5q0 171 105 289.5t283 118.5q96 0 170 -39l-24 -70q-67 37 -150 37q-139 0 -220 -93.5t-81 -241.5q0 -105 56 -160.5t158 -55.5q93 0 182 42l12 -73q-41 -19 -101.5 -31.5t-112.5 -12.5z" />
    <glyph glyph-name="D" unicode="D" horiz-adv-x="696" 
d="M42 0l118 670h201q300 0 300 -277q0 -175 -100.5 -284t-295.5 -109h-223zM228 603l-95 -536h136q141 0 225 84.5t84 243.5q0 208 -213 208h-137z" />
    <glyph glyph-name="E" unicode="E" horiz-adv-x="515" 
d="M42 0l118 670h377l-11 -67h-298l-38 -217h239l-11 -67h-240l-44 -252h299l-11 -67h-380z" />
    <glyph glyph-name="F" unicode="F" horiz-adv-x="505" 
d="M42 0l118 670h377l-11 -67h-298l-39 -221h247l-11 -67h-248l-55 -315h-80z" />
    <glyph glyph-name="G" unicode="G" horiz-adv-x="684" 
d="M348 -14q-130 0 -206.5 78.5t-76.5 206.5q0 178 112 295.5t301 117.5q107 0 191 -42l-24 -69q-78 39 -174 39q-147 0 -235 -95t-88 -241q0 -108 59.5 -162.5t166.5 -54.5q74 0 132 22l32 180h-129l11 67h209l-52 -300q-97 -42 -229 -42z" />
    <glyph glyph-name="H" unicode="H" horiz-adv-x="719" 
d="M42 0l118 670h80l-51 -285h387l51 285h80l-118 -670h-80l56 318h-387l-56 -318h-80z" />
    <glyph glyph-name="I" unicode="I" horiz-adv-x="252" 
d="M42 0l118 670h80l-118 -670h-80z" />
    <glyph glyph-name="J" unicode="J" horiz-adv-x="273" 
d="M-37 -110l-25 59q76 36 107 78t46 131l88 512h79l-86 -505q-19 -114 -63.5 -175t-145.5 -100z" />
    <glyph glyph-name="K" unicode="K" horiz-adv-x="603" 
d="M531 0q-28 -7 -49 -7q-31 0 -48 13t-39 46l-192 297l312 321h104l-325 -323l166 -255q12 -19 22 -24t30 -5h19v-63zM42 0l118 670h80l-118 -670h-80z" />
    <glyph glyph-name="L" unicode="L" horiz-adv-x="510" 
d="M42 0l118 670h80l-106 -604h309l-11 -66h-390z" />
    <glyph glyph-name="M" unicode="M" horiz-adv-x="832" 
d="M42 0l118 670h91l143 -546l337 546h89l-117 -670h-80l91 507l-316 -507h-50l-136 511l-90 -511h-80z" />
    <glyph glyph-name="N" unicode="N" horiz-adv-x="692" 
d="M42 0l118 670h84l270 -502l86 502h80l-118 -670h-48l-295 553l-97 -553h-80z" />
    <glyph glyph-name="O" unicode="O" horiz-adv-x="724" 
d="M312 -14q-126 0 -186.5 75t-60.5 194q0 81 24.5 157t69.5 137t117 98t159 37q128 0 191 -72t63 -187q0 -118 -42.5 -216t-130 -160.5t-204.5 -62.5zM324 57q71 0 127 32.5t88.5 85.5t49.5 115t17 127q0 99 -45 147.5t-138 48.5q-128 0 -201.5 -106.5t-73.5 -249.5
q0 -100 43 -150t133 -50z" />
    <glyph glyph-name="P" unicode="P" horiz-adv-x="544" 
d="M122 0h-80l118 670h199q86 0 133 -42t47 -114q0 -234 -284 -234h-84zM228 603l-45 -256h89q89 0 138.5 39.5t49.5 120.5q0 96 -124 96h-108z" />
    <glyph glyph-name="Q" unicode="Q" horiz-adv-x="724" 
d="M504 -235q-32 0 -63 19.5t-60 58t-47.5 68t-44.5 76.5q-114 7 -169 80.5t-55 187.5q0 81 24.5 157t69.5 137t117 98t159 37q128 0 191 -72t63 -187q0 -107 -35.5 -198.5t-108.5 -156t-172 -79.5q47 -84 84 -120t77 -36h28v-62q-23 -8 -58 -8zM324 57q71 0 127 32.5
t88.5 85.5t49.5 115t17 127q0 99 -45 147.5t-138 48.5q-128 0 -201.5 -106.5t-73.5 -249.5q0 -100 43 -150t133 -50z" />
    <glyph glyph-name="R" unicode="R" horiz-adv-x="597" 
d="M529 0q-24 -7 -60 -7q-30 0 -46.5 14.5t-32.5 52.5l-70 176q-13 32 -29.5 46t-53.5 14h-63l-52 -296h-80l118 670h198q88 0 135 -41t47 -117q0 -82 -49.5 -137.5t-135.5 -69.5q29 -16 48 -65l57 -143q8 -20 16.5 -27t24.5 -7h28v-63zM228 603l-42 -237h120q66 0 110 37.5
t44 102.5q0 97 -122 97h-110z" />
    <glyph glyph-name="S" unicode="S" horiz-adv-x="508" 
d="M190 -14q-109 0 -185 50l25 72q80 -53 168 -53q29 0 57 7t52.5 21t40 39t15.5 56q0 12 -3.5 23t-7.5 20t-14.5 19.5l-17 16.5t-23 17.5t-24.5 16.5l-30 18t-31 19q-55 34 -83.5 69t-28.5 89q0 96 66.5 147t163.5 51q101 0 163 -37l-24 -70q-55 37 -138 37
q-63 0 -107 -29.5t-44 -91.5q0 -14 5.5 -27t11.5 -22t21 -20.5t23 -17t30 -18t29 -17.5q37 -23 53.5 -34.5t42.5 -35t37 -49t11 -57.5q0 -97 -67.5 -153t-186.5 -56z" />
    <glyph glyph-name="T" unicode="T" horiz-adv-x="619" 
d="M223 0l106 603h-227l12 67h534l-12 -67h-227l-106 -603h-80z" />
    <glyph glyph-name="U" unicode="U" horiz-adv-x="667" 
d="M295 -14q-100 0 -162.5 47.5t-62.5 136.5q0 28 4 52l79 448h80l-77 -435q-5 -27 -5 -54q0 -124 162 -124q159 0 193 187l76 426h80l-79 -448q-42 -236 -288 -236z" />
    <glyph glyph-name="V" unicode="V" horiz-adv-x="624" 
d="M182 670l107 -528l284 528h88l-370 -670h-45l-149 670h85z" />
    <glyph glyph-name="W" unicode="W" horiz-adv-x="919" 
d="M186 670l71 -528l210 407l-21 121h86l81 -527l253 527h85l-337 -670h-48l-79 440l-231 -440h-47l-107 670h84z" />
    <glyph glyph-name="X" unicode="X" horiz-adv-x="645" 
d="M0 0l293 358l-150 312h92l115 -257l203 257h97l-268 -324l174 -346h-94l-137 291l-224 -291h-101z" />
    <glyph glyph-name="Y" unicode="Y" horiz-adv-x="595" 
d="M215 0l47 268l-160 402h86l124 -330l225 330h92l-289 -407l-45 -263h-80z" />
    <glyph glyph-name="Z" unicode="Z" horiz-adv-x="607" 
d="M15 0v40l472 563h-353l12 67h461v-42l-473 -561h388l-11 -67h-496z" />
    <glyph glyph-name="bracketleft" unicode="[" horiz-adv-x="401" 
d="M439 735h-194l-147 -836h194l-10 -56h-268l167 948h268z" />
    <glyph glyph-name="backslash" unicode="\" horiz-adv-x="536" 
d="M412 -235l-280 1010h60l281 -1010h-61z" />
    <glyph glyph-name="bracketright" unicode="]" horiz-adv-x="401" 
d="M325 735h-194l10 56h268l-167 -948h-267l9 56h194z" />
    <glyph glyph-name="asciicircum" unicode="^" 
d="M265 660h50l195 -366l-49 -27l-171 324l-171 -324l-49 27z" />
    <glyph glyph-name="underscore" unicode="_" 
d="M500 -107l-10 -52h-559l10 52h559z" />
    <glyph glyph-name="grave" unicode="`" horiz-adv-x="400" 
d="M340 576l-34 -18l-138 161l88 26z" />
    <glyph glyph-name="a" unicode="a" horiz-adv-x="516" 
d="M325 25q0 17 5 45q-33 -39 -74.5 -61.5t-78.5 -22.5q-63 0 -96.5 46t-33.5 125q0 139 71.5 235t186.5 96q85 0 156 -46l-55 -326q-7 -42 -7 -51q0 -14 11 -18.5t43 -5.5v-41q-47 -14 -84 -14q-24 0 -34 9.5t-10 29.5zM191 52q37 0 79.5 35.5t72.5 81.5l40 237
q-28 21 -81 21q-78 0 -130 -76.5t-52 -187.5t71 -111z" />
    <glyph glyph-name="b" unicode="b" horiz-adv-x="506" 
d="M235 726l-56 -315q72 77 151 77q63 0 97 -46.5t34 -124.5q0 -135 -71.5 -233t-187.5 -98q-89 0 -160 46l118 678zM315 421q-38 0 -82 -35t-72 -79l-42 -239q27 -21 85 -21q79 0 131.5 78t52.5 186q0 50 -18.5 80t-54.5 30z" />
    <glyph glyph-name="c" unicode="c" horiz-adv-x="440" 
d="M210 -14q-165 0 -165 172q0 137 75.5 233.5t191.5 96.5q64 0 108 -34l-25 -59q-38 32 -92 32q-75 0 -130 -79.5t-55 -181.5q0 -115 102 -115q66 0 133 45l17 -60q-27 -19 -75 -34.5t-85 -15.5z" />
    <glyph glyph-name="d" unicode="d" horiz-adv-x="535" 
d="M307 488q53 0 96 -15l41 237l75 16l-107 -610q-7 -42 -7 -52q0 -13 11.5 -17.5t42.5 -5.5v-41q-40 -14 -84 -14q-25 0 -34.5 9t-9.5 31q0 16 5 44q-34 -37 -76 -60.5t-79 -23.5q-65 0 -99.5 44.5t-34.5 128.5q0 143 75 236t185 93zM192 52q35 0 80.5 34.5t77.5 85.5
l41 233q-36 22 -84 22q-81 0 -134 -76.5t-53 -184.5q0 -114 72 -114z" />
    <glyph glyph-name="e" unicode="e" horiz-adv-x="450" 
d="M430 388q0 -82 -78.5 -134.5t-233.5 -56.5q-1 -9 -1 -27q0 -60 23 -89.5t80 -29.5q76 0 151 53l17 -61q-81 -57 -179 -57q-164 0 -164 173q0 143 78.5 236t181.5 93q55 0 90 -26.5t35 -73.5zM298 426q-52 0 -100 -49t-69 -123q39 2 75.5 9t72 20.5t57 38.5t21.5 58
q0 46 -57 46z" />
    <glyph glyph-name="f" unicode="f" horiz-adv-x="339" 
d="M212 412l-81 -473q-15 -88 -48.5 -131t-101.5 -43q-45 0 -76 17l19 59q26 -14 54 -14q39 0 55.5 27.5t26.5 88.5l81 469h-78l12 62h77l7 42q19 114 72.5 162t117.5 48q43 0 67 -16l-24 -58q-18 12 -45 12q-92 0 -119 -160l-5 -30h114l-10 -62h-115z" />
    <glyph glyph-name="g" unicode="g" horiz-adv-x="507" 
d="M183 -173q56 0 88 41t47 131l11 65q-73 -78 -146 -78q-67 0 -101.5 45.5t-34.5 130.5q0 140 76 233t185 93q88 0 159 -45l-77 -441q-10 -56 -23.5 -96t-36.5 -73.5t-59 -50.5t-85 -17q-92 0 -161 37l19 62q68 -37 139 -37zM190 52q38 0 82 34t75 81l42 238q-27 22 -79 22
q-82 0 -136 -74.5t-54 -186.5q0 -51 17 -82.5t53 -31.5z" />
    <glyph glyph-name="h" unicode="h" horiz-adv-x="529" 
d="M238 726l-55 -316q70 78 154 78q56 0 89 -35t33 -94q0 -43 -11 -106l-25 -149q-5 -29 -5 -40q0 -14 13 -18.5t41 -4.5v-41q-49 -14 -88 -14q-24 0 -34 9.5t-10 29.5q0 8 8 60l26 154q14 87 14 111q0 31 -16.5 51.5t-49.5 20.5q-42 0 -85.5 -35t-71.5 -80l-53 -307h-72
l123 710z" />
    <glyph glyph-name="i" unicode="i" horiz-adv-x="258" 
d="M191 380l-50 -276q-5 -31 -5 -40q0 -23 54 -23v-41q-37 -14 -87 -14q-44 0 -44 38q0 15 8 60l49 281q6 36 6 43q0 14 -13 19t-41 6l8 41q47 14 86 14q23 0 30.5 -8t7.5 -24q0 -24 -9 -76zM243 647q0 -23 -15.5 -40.5t-39.5 -17.5q-23 0 -37 15t-14 37q0 25 17 40.5
t39 15.5t36 -15t14 -35z" />
    <glyph glyph-name="j" unicode="j" horiz-adv-x="241" 
d="M198 380l-77 -438q-16 -90 -51 -133.5t-98 -43.5q-51 0 -77 18l18 58q30 -13 57 -13q34 0 51.5 27t28.5 88l73 420q6 39 6 43q0 15 -12 20.5t-42 6.5l8 41q42 14 87 14q22 0 29.5 -8t7.5 -24q0 -24 -9 -76zM246 652q0 -23 -15.5 -40.5t-39.5 -17.5q-23 0 -37 15t-14 37
q0 25 17 40.5t39 15.5t36 -15t14 -35z" />
    <glyph glyph-name="k" unicode="k" horiz-adv-x="490" 
d="M421 0q-35 -14 -67 -14q-25 0 -39 12t-26 38l-106 223l195 215h97l-212 -220l90 -182q10 -19 23.5 -25t44.5 -6v-41zM238 726l-126 -726h-72l123 710z" />
    <glyph glyph-name="l" unicode="l" horiz-adv-x="247" 
d="M178 0q-44 -14 -88 -14q-45 0 -45 36q0 17 8 62l110 626l75 16l-110 -621q-5 -29 -5 -41q0 -14 13 -18.5t42 -4.5v-41z" />
    <glyph glyph-name="m" unicode="m" horiz-adv-x="808" 
d="M333 0l40 239q14 84 14 109q0 34 -16 54t-45 20q-39 0 -80 -34t-68 -78l-54 -310h-71l63 365q6 36 6 43q0 14 -12 19t-42 6l8 41q54 14 85 14q23 0 31 -8t8 -24q0 -13 -4 -45q68 77 144 77q48 0 78.5 -29t36.5 -72q84 101 163 101q52 0 86 -34t34 -97q0 -36 -12 -110
l-24 -143q-5 -29 -5 -40q0 -14 13 -18.5t41 -4.5v-41q-49 -14 -86 -14q-46 0 -46 38q0 20 8 60l26 156q14 82 14 107q0 34 -16.5 54.5t-44.5 20.5q-40 0 -83 -37t-68 -82l-50 -303h-72z" />
    <glyph glyph-name="n" unicode="n" horiz-adv-x="541" 
d="M124 0h-71l63 365q6 36 6 43q0 14 -12 19t-42 6l8 41q54 14 85 14q23 0 31 -8t8 -24q0 -13 -4 -45q70 77 153 77q56 0 89 -35t33 -94q0 -43 -11 -106l-25 -149q-5 -29 -5 -40q0 -14 13 -18.5t41 -4.5v-41q-49 -14 -88 -14q-24 0 -34 9.5t-10 29.5q0 8 8 60l26 154
q14 87 14 111q0 31 -16.5 51.5t-49.5 20.5q-41 0 -84.5 -34.5t-71.5 -78.5z" />
    <glyph glyph-name="o" unicode="o" horiz-adv-x="497" 
d="M281 427q-66 0 -114.5 -74t-48.5 -185q0 -121 98 -121q66 0 114.5 74t48.5 185q0 121 -98 121zM204 -14q-74 0 -116.5 46t-42.5 132q0 60 15.5 116.5t45 103.5t78 75.5t109.5 28.5q74 0 116.5 -46t42.5 -132q0 -60 -15.5 -116.5t-45 -103.5t-78 -75.5t-109.5 -28.5z" />
    <glyph glyph-name="p" unicode="p" horiz-adv-x="521" 
d="M86 -221h-71l100 586q6 36 6 44q0 14 -12.5 18.5t-41.5 5.5l8 41q53 14 89 14q21 0 28 -8.5t7 -24.5q0 -14 -4 -44q69 77 150 77q64 0 97.5 -47t33.5 -121q0 -141 -72.5 -237.5t-187.5 -96.5q-47 0 -92 14zM330 422q-37 0 -82 -35.5t-70 -77.5l-43 -242q28 -20 81 -20
q83 0 135 78.5t52 186.5q0 48 -18 79t-55 31z" />
    <glyph glyph-name="q" unicode="q" horiz-adv-x="507" 
d="M467 442l-111 -663h-73l49 287q-73 -80 -150 -80q-65 0 -100 44.5t-35 126.5q0 142 73.5 236.5t190.5 94.5q89 0 156 -46zM193 52q38 0 82.5 36t74.5 82l40 236q-37 21 -82 21q-79 0 -133.5 -74.5t-54.5 -189.5q0 -111 73 -111z" />
    <glyph glyph-name="r" unicode="r" horiz-adv-x="365" 
d="M317 404q-54 0 -138 -93l-55 -311h-71l63 365q6 36 6 43q0 14 -12 19t-42 6l8 41q54 14 85 14q23 0 31 -8t8 -24q0 -21 -6 -59q77 91 135 91q23 0 31 -15l-18 -72q-9 3 -25 3z" />
    <glyph glyph-name="s" unicode="s" horiz-adv-x="376" 
d="M318 129q0 -65 -45 -104t-125 -39q-83 0 -148 48l28 57q21 -17 56 -31t70 -14q41 0 68 22t27 56q0 24 -19.5 43.5t-46.5 35.5l-54.5 33.5t-47 45.5t-19.5 63q0 66 46 104.5t117 38.5q68 0 121 -31l-25 -58q-45 29 -99 29q-42 0 -66.5 -21t-24.5 -53q0 -24 19.5 -43.5
t46.5 -35t54.5 -33.5t47 -47t19.5 -66z" />
    <glyph glyph-name="t" unicode="t" horiz-adv-x="356" 
d="M67 474h72l42 125h51l-22 -125h126l-10 -62h-126l-48 -283q-6 -36 -6 -53q0 -12 10.5 -20t26.5 -8q43 0 89 26l14 -56q-59 -32 -120 -32q-42 0 -67 20t-25 62q0 27 6 61l47 283h-72z" />
    <glyph glyph-name="u" unicode="u" horiz-adv-x="535" 
d="M480 474l-63 -370q-4 -23 -4 -40q0 -23 54 -23v-41q-50 -14 -82 -14q-46 0 -46 38q0 7 5 47q-75 -85 -157 -85q-56 0 -90 33.5t-34 90.5q0 35 6 75l29 180q6 36 6 43q0 14 -13 19t-41 6l8 41q42 14 85 14q40 0 40 -33q0 -17 -10 -75l-32 -190q-8 -56 -8 -73q0 -29 18 -47
t47 -18q43 0 86.5 35.5t73.5 83.5l50 303h72z" />
    <glyph glyph-name="v" unicode="v" horiz-adv-x="458" 
d="M153 0l-60 397q-3 22 -13 28.5t-45 7.5l8 41q35 14 64 14q16 0 25.5 -3.5t15 -15.5t7.5 -23t6 -37l41 -286l99 159q39 64 52 93t13 54q0 22 -6 40l61 20q17 -30 17 -60q0 -58 -65 -158l-176 -271h-44z" />
    <glyph glyph-name="w" unicode="w" horiz-adv-x="679" 
d="M153 0l-60 395q-4 24 -12.5 30.5t-45.5 7.5l8 41q36 14 63 14q30 0 39.5 -14.5t15.5 -61.5l37 -278l96 194q33 69 33 101q0 19 -4 40l69 19l49 -360l90 152q57 97 57 148q0 18 -7 41l62 20q16 -28 16 -59q0 -63 -59 -160l-165 -270h-43l-41 305l-152 -305h-46z" />
    <glyph glyph-name="x" unicode="x" horiz-adv-x="470" 
d="M460 474l-186 -237l63 -153q10 -26 23.5 -34t47.5 -9v-41q-30 -14 -58 -14t-44.5 17t-34.5 61l-47 117l-140 -181h-84l198 245l-57 142q-11 29 -22 37t-50 9l8 41q30 14 63 14q15 0 25.5 -8.5t16 -19t15.5 -34.5l52 -128l127 176h84z" />
    <glyph glyph-name="y" unicode="y" horiz-adv-x="458" 
d="M227 99l88 177q46 93 46 150q0 26 -7 45l63 18q16 -27 16 -67q0 -69 -54 -171l-159 -303q-18 -35 -28 -52.5t-28.5 -44t-35 -39.5t-40.5 -23t-52 -10q-44 0 -76 17l18 59q25 -15 53 -15q40 0 67 33t62 103l17 34l-80 387q-5 23 -13.5 29t-44.5 7l8 41q33 14 65 14
q25 0 35 -12.5t19 -57.5z" />
    <glyph glyph-name="z" unicode="z" horiz-adv-x="450" 
d="M15 0v34l293 378h-238l10 62h335v-36l-298 -376h274l-10 -62h-366z" />
    <glyph glyph-name="braceleft" unicode="{" horiz-adv-x="441" 
d="M44 347q77 13 105 40t41 99l26 153q16 91 61.5 121.5t142.5 30.5h58l-10 -55h-46q-60 0 -90 -19t-40 -79l-27 -151q-16 -85 -45.5 -121t-106.5 -51q53 -17 75.5 -43.5t22.5 -72.5q0 -36 -18 -125.5t-18 -115.5q0 -36 23.5 -48t73.5 -12h49l-10 -55h-63q-80 0 -115 22.5
t-35 79.5q0 35 18.5 130t18.5 126q0 41 -22.5 59t-79.5 28z" />
    <glyph glyph-name="bar" unicode="|" horiz-adv-x="300" 
d="M190 -235h-60v1010h60v-1010z" />
    <glyph glyph-name="braceright" unicode="}" horiz-adv-x="441" 
d="M404 287q-77 -13 -105 -40t-41 -99l-26 -153q-16 -91 -61.5 -121.5t-142.5 -30.5h-58l10 55h46q60 0 90 19t40 79l27 151q16 85 45.5 121t106.5 51q-53 17 -75.5 43.5t-22.5 72.5q0 36 18 125.5t18 115.5q0 36 -23.5 48t-73.5 12h-49l10 55h63q80 0 115 -22.5t35 -79.5
q0 -35 -18.5 -130t-18.5 -126q0 -41 22.5 -59t79.5 -28z" />
    <glyph glyph-name="asciitilde" unicode="~" 
d="M466 368l49 -13q-28 -115 -114 -115q-35 0 -114 31t-107 31q-27 0 -42 -17.5t-24 -52.5l-49 13q28 115 114 115q35 0 114 -31t107 -31q27 0 42 17.5t24 52.5z" />
    <glyph glyph-name="uni00A0" unicode="&#xa0;" horiz-adv-x="220" 
 />
    <glyph glyph-name="exclamdown" unicode="&#xa1;" horiz-adv-x="220" 
d="M93 280h43l-43 -476h-116zM200 431q0 -26 -18 -45.5t-45 -19.5t-42.5 17t-15.5 41q0 29 19.5 46.5t44.5 17.5t41 -17t16 -40z" />
    <glyph glyph-name="cent" unicode="&#xa2;" 
d="M216 -114l18 101q-71 7 -110 56.5t-39 128.5q0 123 65.5 209.5t171.5 102.5l19 109h52l-19 -105q63 -3 118 -32l-25 -58q-48 27 -104 29l-66 -376q60 5 128 44l17 -58q-65 -40 -156 -49l-18 -102h-52zM158 180q0 -109 88 -126l64 366q-72 -20 -112 -91t-40 -149z" />
    <glyph glyph-name="sterling" unicode="&#xa3;" 
d="M84 300l9 49h96q-8 35 -8 73q0 109 64 173.5t163 64.5q63 0 107 -12l-21 -68q-40 10 -86 10q-69 0 -108 -40t-39 -123q0 -32 11 -78h183l-9 -49h-165q2 -20 2 -30q0 -64 -34.5 -111t-101.5 -87h291l-15 -72h-398v35q73 37 125.5 96t52.5 130q0 13 -4 39h-115z" />
    <glyph glyph-name="currency" unicode="&#xa4;" 
d="M494 521l33 -41l-79 -67q17 -31 17 -73q0 -82 -49 -142l64 -72l-45 -38l-62 71q-52 -34 -118 -34q-56 0 -93 27l-81 -68l-33 41l79 67q-17 31 -17 76q0 80 49 138l-64 73l45 38l62 -72q51 35 115 35q57 0 96 -28zM266 183q56 0 91.5 45.5t35.5 106.5q0 41 -22 64t-64 23
q-55 0 -89.5 -45t-34.5 -105q0 -41 21 -65t62 -24z" />
    <glyph glyph-name="yen" unicode="&#xa5;" 
d="M104 291l9 49h113l-131 306h87l111 -288l209 288h92l-236 -306h117l-9 -49h-142l-12 -69h142l-9 -49h-142l-30 -173h-80l30 173h-140l9 49h140l12 69h-140z" />
    <glyph glyph-name="brokenbar" unicode="&#xa6;" horiz-adv-x="300" 
d="M190 405h-60v370h60v-370zM190 -235h-60v370h60v-370z" />
    <glyph glyph-name="section" unicode="&#xa7;" horiz-adv-x="471" 
d="M64 275q0 59 45 99t117 55q-76 54 -76 118q0 68 48.5 102.5t119.5 34.5q73 0 130 -31l-24 -55q-54 26 -106 26q-41 0 -70 -18t-29 -52q0 -28 31.5 -57t68.5 -51t68.5 -58t31.5 -76q0 -59 -45.5 -99t-116.5 -55q76 -57 76 -118q0 -68 -48.5 -102.5t-119.5 -34.5
q-73 0 -130 31l24 55q54 -26 106 -26q41 0 70 18t29 52q0 23 -20.5 45.5t-50 42.5l-59 41t-50 50.5t-20.5 62.5zM136 286q0 -43 65 -90q57 9 101.5 35.5t44.5 69.5q0 44 -65 89q-58 -9 -102 -35t-44 -69z" />
    <glyph glyph-name="dieresis" unicode="&#xa8;" horiz-adv-x="400" 
d="M222 647q0 -22 -15 -38.5t-37 -16.5t-35 14.5t-13 34.5q0 24 16 38.5t37 14.5t34 -14t13 -33zM422 647q0 -22 -15 -38.5t-37 -16.5t-35 14.5t-13 34.5q0 24 16 38.5t37 14.5t34 -14t13 -33z" />
    <glyph glyph-name="copyright" unicode="&#xa9;" horiz-adv-x="810" 
d="M436 139q-88 0 -142 49.5t-54 140.5t53 145.5t142 54.5q55 0 102 -25l-10 -56q-43 25 -89 25q-66 0 -101.5 -39.5t-35.5 -104.5q0 -66 37.5 -100t105.5 -34q53 0 95 21l6 -52q-44 -25 -109 -25zM770 336q0 -146 -102.5 -248t-247.5 -102t-247.5 102t-102.5 248
q0 145 102.5 246.5t247.5 101.5t247.5 -101.5t102.5 -246.5zM725 336q0 126 -89 215.5t-216 89.5q-125 0 -215 -89.5t-90 -215.5q0 -127 89.5 -216.5t215.5 -89.5q127 0 216 89.5t89 216.5z" />
    <glyph glyph-name="ordfeminine" unicode="&#xaa;" horiz-adv-x="392" 
d="M288 357q0 12 1 22q-48 -50 -106 -50q-47 0 -72.5 33t-25.5 88q0 98 53.5 166t140.5 68q65 0 118 -32l-41 -222q-5 -27 -5 -36q0 -10 8 -13.5t32 -3.5v-38q-32 -10 -65 -10q-38 0 -38 28zM192 383q26 0 56 20t52 49l29 167q-23 14 -54 14q-60 0 -95 -55t-35 -124
q0 -71 47 -71z" />
    <glyph glyph-name="guillemotleft" unicode="&#xab;" horiz-adv-x="537" 
d="M330 234l110 -170l-46 -33l-149 207l214 207l38 -35zM135 234l110 -170l-46 -33l-149 207l214 207l38 -35z" />
    <glyph glyph-name="logicalnot" unicode="&#xac;" 
d="M515 425v-242h-54v190h-396v52h450z" />
    <glyph glyph-name="uni00AD" unicode="&#xad;" horiz-adv-x="350" 
d="M31 220l11 60h280l-11 -60h-280z" />
    <glyph glyph-name="registered" unicode="&#xae;" horiz-adv-x="810" 
d="M770 336q0 -146 -102.5 -248t-247.5 -102t-247.5 102t-102.5 248q0 145 102.5 246.5t247.5 101.5t247.5 -101.5t102.5 -246.5zM725 336q0 126 -89 215.5t-216 89.5q-125 0 -215 -89.5t-90 -215.5q0 -127 89.5 -216.5t215.5 -89.5q127 0 216 89.5t89 216.5zM585 145
q-16 -4 -32 -4q-35 0 -60 39l-64 100q-13 21 -37 21h-28v-152h-58v371h123q55 0 87 -26.5t32 -77.5q0 -86 -83 -109q20 -10 38 -38l39 -64q11 -19 27 -19h16v-41zM364 470v-116h56q34 0 52 16.5t18 42.5q0 27 -17.5 42t-49.5 15h-59z" />
    <glyph glyph-name="macron" unicode="&#xaf;" horiz-adv-x="400" 
d="M410 656l-10 -60h-270l10 60h270z" />
    <glyph glyph-name="degree" unicode="&#xb0;" 
d="M300 341q-64 0 -104.5 40t-40.5 105q0 75 48.5 124.5t126.5 49.5q64 0 104.5 -40.5t40.5 -105.5q0 -75 -48.5 -124t-126.5 -49zM302 389q49 0 81.5 35.5t32.5 92.5q0 40 -26 67.5t-62 27.5q-49 0 -81.5 -35.5t-32.5 -93.5q0 -40 26 -67t62 -27z" />
    <glyph glyph-name="plusminus" unicode="&#xb1;" 
d="M515 308h-198v-177h-54v177h-198v52h198v176h54v-176h198v-52zM515 0h-450v52h450v-52z" />
    <glyph glyph-name="twosuperior" unicode="&#xb2;" horiz-adv-x="400" 
d="M54 327v31q137 85 210.5 148t73.5 121q0 51 -60 51q-63 0 -125 -45l-29 49q74 54 161 54q57 0 90 -27t33 -79q0 -36 -20 -72t-56.5 -68.5t-67 -55t-71.5 -48.5h177l-13 -59h-303z" />
    <glyph glyph-name="threesuperior" unicode="&#xb3;" horiz-adv-x="400" 
d="M375 438q0 -58 -45 -89.5t-111 -31.5q-87 0 -154 50l38 47q56 -40 112 -40q40 0 66 15.5t26 47.5q0 35 -37 50.5t-81 15.5h-26l9 50q159 9 159 84q0 42 -58 42q-62 0 -111 -39l-27 46q61 50 148 50q52 0 84.5 -24t32.5 -67q0 -42 -29.5 -72.5t-76.5 -43.5q35 -9 58 -34
t23 -57z" />
    <glyph glyph-name="acute" unicode="&#xb4;" horiz-adv-x="400" 
d="M204 558l-34 20l122 167l83 -30z" />
    <glyph glyph-name="mu" unicode="&#xb5;" horiz-adv-x="552" 
d="M125 10l-8 -46q-7 -36 -7 -64q0 -33 11 -51t35 -33l-33 -51q-84 21 -84 125q0 32 6 63l70 412q6 36 6 43q0 14 -13 19t-41 6l8 41q42 14 85 14q40 0 40 -33q0 -17 -10 -75l-32 -190q-8 -56 -8 -73q0 -29 18 -47t47 -18q43 0 86.5 35.5t73.5 83.5l50 303h72l-63 -370
q-4 -23 -4 -40q0 -23 54 -23v-41q-50 -14 -82 -14q-46 0 -46 38q0 7 5 47q-75 -85 -157 -85q-53 0 -79 24z" />
    <glyph glyph-name="paragraph" unicode="&#xb6;" horiz-adv-x="653" 
d="M671 670l-11 -59h-84l-122 -695h-71l122 696h-88l-122 -696h-71l62 353q-95 0 -144.5 47t-49.5 121q0 110 73.5 171.5t194.5 61.5h311zM296 325l50 287q-84 -2 -134.5 -45.5t-50.5 -128.5q0 -55 34.5 -84t100.5 -29z" />
    <glyph glyph-name="periodcentered" unicode="&#xb7;" horiz-adv-x="250" 
d="M199 308q0 -26 -18 -45.5t-45 -19.5t-42.5 17t-15.5 41q0 29 19.5 46.5t44.5 17.5t41 -17t16 -40z" />
    <glyph glyph-name="cedilla" unicode="&#xb8;" horiz-adv-x="400" 
d="M232 -131q0 -43 -38.5 -73.5t-89.5 -30.5q-44 0 -79 19l14 35q29 -16 64 -16q25 0 40.5 10t15.5 29q0 39 -88 42l-4 18l95 98h55l-65 -64q41 -1 60.5 -19.5t19.5 -47.5z" />
    <glyph glyph-name="onesuperior" unicode="&#xb9;" horiz-adv-x="400" 
d="M361 327h-268l9 48l103 4l60 290l-104 -10l9 49l137 23h37l-72 -352l98 -4z" />
    <glyph glyph-name="ordmasculine" unicode="&#xba;" horiz-adv-x="400" 
d="M220 379q51 0 85.5 45t34.5 115q0 95 -76 95q-51 0 -85.5 -45t-34.5 -115q0 -95 76 -95zM400 547q0 -95 -50 -156.5t-133 -61.5q-62 0 -97.5 37.5t-35.5 99.5q0 95 50 156.5t133 61.5q62 0 97.5 -37.5t35.5 -99.5z" />
    <glyph glyph-name="guillemotright" unicode="&#xbb;" horiz-adv-x="537" 
d="M207 242l-110 170l46 33l149 -207l-214 -207l-38 35zM402 242l-110 170l46 33l149 -207l-214 -207l-38 35z" />
    <glyph glyph-name="onequarter" unicode="&#xbc;" horiz-adv-x="1000" 
d="M318 248h-268l9 48l103 4l60 290l-104 -10l9 49l137 23h37l-72 -352l98 -4zM259 -14l-42 37l586 637l42 -37zM931 404l-50 -245h69l-10 -55h-70l-21 -104h-68l21 104h-210v34l294 266h45zM842 296l-150 -137h122z" />
    <glyph glyph-name="onehalf" unicode="&#xbd;" horiz-adv-x="1000" 
d="M318 248h-268l9 48l103 4l60 290l-104 -10l9 49l137 23h37l-72 -352l98 -4zM232 -14l-42 37l586 637l42 -37zM596 0v31q137 85 210.5 148t73.5 121q0 51 -60 51q-63 0 -125 -45l-29 49q74 54 161 54q57 0 90 -27t33 -79q0 -36 -20 -72t-56.5 -68.5t-67 -55t-71.5 -48.5
h177l-13 -59h-303z" />
    <glyph glyph-name="threequarters" unicode="&#xbe;" horiz-adv-x="1000" 
d="M269 -14l-42 37l586 637l42 -37zM931 404l-50 -245h69l-10 -55h-70l-21 -104h-68l21 104h-210v34l294 266h45zM842 296l-150 -137h122zM360 354q0 -58 -45 -89.5t-111 -31.5q-87 0 -154 50l38 47q56 -40 112 -40q40 0 66 15.5t26 47.5q0 35 -37 50.5t-81 15.5h-26l9 50
q159 9 159 84q0 42 -58 42q-62 0 -111 -39l-27 46q61 50 148 50q52 0 84.5 -24t32.5 -67q0 -42 -29.5 -72.5t-76.5 -43.5q35 -9 58 -34t23 -57z" />
    <glyph glyph-name="questiondown" unicode="&#xbf;" horiz-adv-x="380" 
d="M268 260v-37q0 -44 -22.5 -81.5t-55 -63l-64.5 -49t-54.5 -51t-22.5 -57.5q0 -29 21 -47t57 -18q63 0 128 41l27 -55q-35 -25 -80 -38.5t-81 -13.5q-73 0 -112 34.5t-39 86.5q0 46 23.5 82t57.5 61l68 48.5t57.5 57t23.5 74.5v26h68zM185 423q0 26 18 45.5t45 19.5
q26 0 41.5 -17t15.5 -41q0 -29 -19.5 -46.5t-44.5 -17.5t-40.5 17t-15.5 40z" />
    <glyph glyph-name="Agrave" unicode="&#xc0;" horiz-adv-x="641" 
d="M482 0l-38 192h-257l-103 -192h-93l377 670h51l153 -670h-90zM375 539l-151 -279h206zM449 755l-26 -29l-200 91l70 55z" />
    <glyph glyph-name="Aacute" unicode="&#xc1;" horiz-adv-x="641" 
d="M482 0l-38 192h-257l-103 -192h-93l377 670h51l153 -670h-90zM375 539l-151 -279h206zM353 726l-26 29l156 117l70 -55z" />
    <glyph glyph-name="Acircumflex" unicode="&#xc2;" horiz-adv-x="641" 
d="M482 0l-38 192h-257l-103 -192h-93l377 670h51l153 -670h-90zM375 539l-151 -279h206zM404 885h42l77 -142l-34 -17l-76 74l-115 -74l-33 17z" />
    <glyph glyph-name="Atilde" unicode="&#xc3;" horiz-adv-x="641" 
d="M482 0l-38 192h-257l-103 -192h-93l377 670h51l153 -670h-90zM375 539l-151 -279h206zM533 877l36 -12q-36 -118 -100 -118q-21 0 -69 22t-61 22q-27 0 -48 -57l-36 12q36 118 100 118q21 0 69 -22t61 -22q27 0 48 57z" />
    <glyph glyph-name="Adieresis" unicode="&#xc4;" horiz-adv-x="641" 
d="M482 0l-38 192h-257l-103 -192h-93l377 670h51l153 -670h-90zM375 539l-151 -279h206zM354 810q0 -22 -15 -38.5t-37 -16.5t-35 14.5t-13 34.5q0 24 16 38.5t37 14.5t34 -14t13 -33zM554 810q0 -22 -15 -38.5t-37 -16.5t-35 14.5t-13 34.5q0 24 16 38.5t37 14.5t34 -14
t13 -33z" />
    <glyph glyph-name="Aring" unicode="&#xc5;" horiz-adv-x="641" 
d="M482 0l-38 192h-257l-103 -192h-93l377 670h51l153 -670h-90zM375 539l-151 -279h206zM401 714q-38 0 -61.5 21t-23.5 56q0 46 30.5 80t79.5 34q38 0 61.5 -21t23.5 -56q0 -46 -30.5 -80t-79.5 -34zM406 758q25 0 39.5 19.5t14.5 45.5q0 19 -11 28.5t-28 9.5
q-25 0 -39.5 -19.5t-14.5 -45.5q0 -19 11 -28.5t28 -9.5z" />
    <glyph glyph-name="AE" unicode="&#xc6;" horiz-adv-x="901" 
d="M428 0l34 192h-220l-158 -192h-98l557 670h380l-11 -67h-298l-38 -217h239l-11 -67h-240l-45 -252h300l-11 -67h-380zM522 533l-225 -274h177z" />
    <glyph glyph-name="Ccedilla" unicode="&#xc7;" horiz-adv-x="633" 
d="M225 -98l83 86q-115 10 -179 88.5t-64 199.5q0 171 105 289.5t283 118.5q96 0 170 -39l-24 -70q-67 37 -150 37q-139 0 -220 -93.5t-81 -241.5q0 -105 56 -160.5t158 -55.5q93 0 182 42l12 -73q-81 -38 -195 -43l-51 -51q41 -1 60.5 -19.5t19.5 -47.5q0 -43 -38.5 -73.5
t-89.5 -30.5q-44 0 -79 19l14 35q29 -16 64 -16q25 0 40.5 10t15.5 29q0 39 -88 42z" />
    <glyph glyph-name="Egrave" unicode="&#xc8;" horiz-adv-x="515" 
d="M42 0l118 670h377l-11 -67h-298l-38 -217h239l-11 -67h-240l-44 -252h299l-11 -67h-380zM416 755l-26 -29l-200 91l70 55z" />
    <glyph glyph-name="Eacute" unicode="&#xc9;" horiz-adv-x="515" 
d="M42 0l118 670h377l-11 -67h-298l-38 -217h239l-11 -67h-240l-44 -252h299l-11 -67h-380zM277 726l-26 29l156 117l70 -55z" />
    <glyph glyph-name="Ecircumflex" unicode="&#xca;" horiz-adv-x="515" 
d="M42 0l118 670h377l-11 -67h-298l-38 -217h239l-11 -67h-240l-44 -252h299l-11 -67h-380zM363 885h42l77 -142l-34 -17l-76 74l-115 -74l-33 17z" />
    <glyph glyph-name="Edieresis" unicode="&#xcb;" horiz-adv-x="515" 
d="M42 0l118 670h377l-11 -67h-298l-38 -217h239l-11 -67h-240l-44 -252h299l-11 -67h-380zM301 810q0 -22 -15 -38.5t-37 -16.5t-35 14.5t-13 34.5q0 24 16 38.5t37 14.5t34 -14t13 -33zM501 810q0 -22 -15 -38.5t-37 -16.5t-35 14.5t-13 34.5q0 24 16 38.5t37 14.5t34 -14
t13 -33z" />
    <glyph glyph-name="Igrave" unicode="&#xcc;" horiz-adv-x="252" 
d="M42 0l118 670h80l-118 -670h-80zM259 755l-26 -29l-200 91l70 55z" />
    <glyph glyph-name="Iacute" unicode="&#xcd;" horiz-adv-x="252" 
d="M42 0l118 670h80l-118 -670h-80zM179 726l-26 29l156 117l70 -55z" />
    <glyph glyph-name="Icircumflex" unicode="&#xce;" horiz-adv-x="252" 
d="M42 0l118 670h80l-118 -670h-80zM220 885h42l77 -142l-34 -17l-76 74l-115 -74l-33 17z" />
    <glyph glyph-name="Idieresis" unicode="&#xcf;" horiz-adv-x="252" 
d="M42 0l118 670h80l-118 -670h-80zM175 810q0 -22 -15 -38.5t-37 -16.5t-35 14.5t-13 34.5q0 24 16 38.5t37 14.5t34 -14t13 -33zM375 810q0 -22 -15 -38.5t-37 -16.5t-35 14.5t-13 34.5q0 24 16 38.5t37 14.5t34 -14t13 -33z" />
    <glyph glyph-name="Eth" unicode="&#xd0;" horiz-adv-x="719" 
d="M65 0l57 324h-87l10 54h86l52 292h201q300 0 300 -277q0 -175 -100.5 -284t-295.5 -109h-223zM251 603l-40 -225h148l-9 -54h-149l-45 -257h136q140 0 224.5 84.5t84.5 243.5q0 208 -213 208h-137z" />
    <glyph glyph-name="Ntilde" unicode="&#xd1;" horiz-adv-x="692" 
d="M42 0l118 670h84l270 -502l86 502h80l-118 -670h-48l-295 553l-97 -553h-80zM564 877l36 -12q-36 -118 -100 -118q-21 0 -69 22t-61 22q-27 0 -48 -57l-36 12q36 118 100 118q21 0 69 -22t61 -22q27 0 48 57z" />
    <glyph glyph-name="Ograve" unicode="&#xd2;" horiz-adv-x="724" 
d="M312 -14q-126 0 -186.5 75t-60.5 194q0 81 24.5 157t69.5 137t117 98t159 37q128 0 191 -72t63 -187q0 -118 -42.5 -216t-130 -160.5t-204.5 -62.5zM324 57q71 0 127 32.5t88.5 85.5t49.5 115t17 127q0 99 -45 147.5t-138 48.5q-128 0 -201.5 -106.5t-73.5 -249.5
q0 -100 43 -150t133 -50zM485 755l-26 -29l-200 91l70 55z" />
    <glyph glyph-name="Oacute" unicode="&#xd3;" horiz-adv-x="724" 
d="M312 -14q-126 0 -186.5 75t-60.5 194q0 81 24.5 157t69.5 137t117 98t159 37q128 0 191 -72t63 -187q0 -118 -42.5 -216t-130 -160.5t-204.5 -62.5zM324 57q71 0 127 32.5t88.5 85.5t49.5 115t17 127q0 99 -45 147.5t-138 48.5q-128 0 -201.5 -106.5t-73.5 -249.5
q0 -100 43 -150t133 -50zM345 726l-26 29l156 117l70 -55z" />
    <glyph glyph-name="Ocircumflex" unicode="&#xd4;" horiz-adv-x="724" 
d="M312 -14q-126 0 -186.5 75t-60.5 194q0 81 24.5 157t69.5 137t117 98t159 37q128 0 191 -72t63 -187q0 -118 -42.5 -216t-130 -160.5t-204.5 -62.5zM324 57q71 0 127 32.5t88.5 85.5t49.5 115t17 127q0 99 -45 147.5t-138 48.5q-128 0 -201.5 -106.5t-73.5 -249.5
q0 -100 43 -150t133 -50zM449 885h42l77 -142l-34 -17l-76 74l-115 -74l-33 17z" />
    <glyph glyph-name="Otilde" unicode="&#xd5;" horiz-adv-x="724" 
d="M312 -14q-126 0 -186.5 75t-60.5 194q0 81 24.5 157t69.5 137t117 98t159 37q128 0 191 -72t63 -187q0 -118 -42.5 -216t-130 -160.5t-204.5 -62.5zM324 57q71 0 127 32.5t88.5 85.5t49.5 115t17 127q0 99 -45 147.5t-138 48.5q-128 0 -201.5 -106.5t-73.5 -249.5
q0 -100 43 -150t133 -50zM571 877l36 -12q-36 -118 -100 -118q-21 0 -69 22t-61 22q-27 0 -48 -57l-36 12q36 118 100 118q21 0 69 -22t61 -22q27 0 48 57z" />
    <glyph glyph-name="Odieresis" unicode="&#xd6;" horiz-adv-x="724" 
d="M312 -14q-126 0 -186.5 75t-60.5 194q0 81 24.5 157t69.5 137t117 98t159 37q128 0 191 -72t63 -187q0 -118 -42.5 -216t-130 -160.5t-204.5 -62.5zM324 57q71 0 127 32.5t88.5 85.5t49.5 115t17 127q0 99 -45 147.5t-138 48.5q-128 0 -201.5 -106.5t-73.5 -249.5
q0 -100 43 -150t133 -50zM398 810q0 -22 -15 -38.5t-37 -16.5t-35 14.5t-13 34.5q0 24 16 38.5t37 14.5t34 -14t13 -33zM598 810q0 -22 -15 -38.5t-37 -16.5t-35 14.5t-13 34.5q0 24 16 38.5t37 14.5t34 -14t13 -33z" />
    <glyph glyph-name="multiply" unicode="&#xd7;" 
d="M473 449l-145 -146l145 -145l-38 -38l-145 145l-145 -145l-38 38l145 145l-145 146l38 38l145 -146l145 146z" />
    <glyph glyph-name="Oslash" unicode="&#xd8;" horiz-adv-x="724" 
d="M312 -14q-106 0 -168 56l-69 -76h-72l106 116q-44 67 -44 173q0 81 24.5 157t69.5 137t117 98t159 37q106 0 172 -55l68 75h72l-104 -114q46 -67 46 -165q0 -118 -42.5 -216t-130 -160.5t-204.5 -62.5zM324 57q71 0 127 32.5t88.5 85.5t49.5 115t17 127t-20 110
l-389 -427q42 -43 127 -43zM148 257q0 -67 18 -111l388 425q-45 42 -131 42q-128 0 -201.5 -106.5t-73.5 -249.5z" />
    <glyph glyph-name="Ugrave" unicode="&#xd9;" horiz-adv-x="667" 
d="M295 -14q-100 0 -162.5 47.5t-62.5 136.5q0 28 4 52l79 448h80l-77 -435q-5 -27 -5 -54q0 -124 162 -124q159 0 193 187l76 426h80l-79 -448q-42 -236 -288 -236zM465 755l-26 -29l-200 91l70 55z" />
    <glyph glyph-name="Uacute" unicode="&#xda;" horiz-adv-x="667" 
d="M295 -14q-100 0 -162.5 47.5t-62.5 136.5q0 28 4 52l79 448h80l-77 -435q-5 -27 -5 -54q0 -124 162 -124q159 0 193 187l76 426h80l-79 -448q-42 -236 -288 -236zM373 726l-26 29l156 117l70 -55z" />
    <glyph glyph-name="Ucircumflex" unicode="&#xdb;" horiz-adv-x="667" 
d="M295 -14q-100 0 -162.5 47.5t-62.5 136.5q0 28 4 52l79 448h80l-77 -435q-5 -27 -5 -54q0 -124 162 -124q159 0 193 187l76 426h80l-79 -448q-42 -236 -288 -236zM419 885h42l77 -142l-34 -17l-76 74l-115 -74l-33 17z" />
    <glyph glyph-name="Udieresis" unicode="&#xdc;" horiz-adv-x="667" 
d="M295 -14q-100 0 -162.5 47.5t-62.5 136.5q0 28 4 52l79 448h80l-77 -435q-5 -27 -5 -54q0 -124 162 -124q159 0 193 187l76 426h80l-79 -448q-42 -236 -288 -236zM368 810q0 -22 -15 -38.5t-37 -16.5t-35 14.5t-13 34.5q0 24 16 38.5t37 14.5t34 -14t13 -33zM568 810
q0 -22 -15 -38.5t-37 -16.5t-35 14.5t-13 34.5q0 24 16 38.5t37 14.5t34 -14t13 -33z" />
    <glyph glyph-name="Yacute" unicode="&#xdd;" horiz-adv-x="595" 
d="M215 0l47 268l-160 402h86l124 -330l225 330h92l-289 -407l-45 -263h-80zM328 726l-26 29l156 117l70 -55z" />
    <glyph glyph-name="Thorn" unicode="&#xde;" horiz-adv-x="544" 
d="M240 670l-25 -140h119q86 0 133 -42t47 -114q0 -234 -284 -234h-84l-24 -140h-80l118 670h80zM203 463l-45 -256h89q89 0 138.5 39.5t49.5 120.5q0 96 -124 96h-108z" />
    <glyph glyph-name="germandbls" unicode="&#xdf;" horiz-adv-x="592" 
d="M63 412l12 62h76l6 31q39 221 228 221q80 0 123.5 -38t43.5 -88q0 -32 -13.5 -60t-33.5 -47t-44 -38l-44 -33.5t-33.5 -33t-13.5 -37.5q0 -22 18 -41t44.5 -34.5t52.5 -33.5t44 -47t18 -66q0 -65 -45 -104t-125 -39q-83 0 -148 48l28 57q21 -17 56 -31t70 -14q41 0 68 22
t27 56q0 24 -18 44t-44 36l-52.5 33.5t-44.5 44t-18 60.5q0 45 27.5 82t60 58.5t60 51t27.5 61.5q0 30 -27.5 47.5t-69.5 17.5q-123 0 -154 -174l-94 -547q-15 -88 -48.5 -131t-101.5 -43q-45 0 -76 17l19 59q26 -14 54 -14q39 0 55 27t27 89l81 469h-78z" />
    <glyph glyph-name="agrave" unicode="&#xe0;" horiz-adv-x="516" 
d="M325 25q0 17 5 45q-33 -39 -74.5 -61.5t-78.5 -22.5q-63 0 -96.5 46t-33.5 125q0 139 71.5 235t186.5 96q85 0 156 -46l-55 -326q-7 -42 -7 -51q0 -14 11 -18.5t43 -5.5v-41q-47 -14 -84 -14q-24 0 -34 9.5t-10 29.5zM191 52q37 0 79.5 35.5t72.5 81.5l40 237
q-28 21 -81 21q-78 0 -130 -76.5t-52 -187.5t71 -111zM360 576l-34 -18l-138 161l88 26z" />
    <glyph glyph-name="aacute" unicode="&#xe1;" horiz-adv-x="516" 
d="M325 25q0 17 5 45q-33 -39 -74.5 -61.5t-78.5 -22.5q-63 0 -96.5 46t-33.5 125q0 139 71.5 235t186.5 96q85 0 156 -46l-55 -326q-7 -42 -7 -51q0 -14 11 -18.5t43 -5.5v-41q-47 -14 -84 -14q-24 0 -34 9.5t-10 29.5zM191 52q37 0 79.5 35.5t72.5 81.5l40 237
q-28 21 -81 21q-78 0 -130 -76.5t-52 -187.5t71 -111zM299 558l-34 20l122 167l83 -30z" />
    <glyph glyph-name="acircumflex" unicode="&#xe2;" horiz-adv-x="516" 
d="M325 25q0 17 5 45q-33 -39 -74.5 -61.5t-78.5 -22.5q-63 0 -96.5 46t-33.5 125q0 139 71.5 235t186.5 96q85 0 156 -46l-55 -326q-7 -42 -7 -51q0 -14 11 -18.5t43 -5.5v-41q-47 -14 -84 -14q-24 0 -34 9.5t-10 29.5zM191 52q37 0 79.5 35.5t72.5 81.5l40 237
q-28 21 -81 21q-78 0 -130 -76.5t-52 -187.5t71 -111zM324 742h42l77 -167l-34 -17l-76 94l-115 -94l-33 17z" />
    <glyph glyph-name="atilde" unicode="&#xe3;" horiz-adv-x="516" 
d="M325 25q0 17 5 45q-33 -39 -74.5 -61.5t-78.5 -22.5q-63 0 -96.5 46t-33.5 125q0 139 71.5 235t186.5 96q85 0 156 -46l-55 -326q-7 -42 -7 -51q0 -14 11 -18.5t43 -5.5v-41q-47 -14 -84 -14q-24 0 -34 9.5t-10 29.5zM191 52q37 0 79.5 35.5t72.5 81.5l40 237
q-28 21 -81 21q-78 0 -130 -76.5t-52 -187.5t71 -111zM435 721l36 -12q-36 -118 -100 -118q-21 0 -69 22t-61 22q-27 0 -48 -57l-36 12q36 118 100 118q21 0 69 -22t61 -22q27 0 48 57z" />
    <glyph glyph-name="adieresis" unicode="&#xe4;" horiz-adv-x="516" 
d="M325 25q0 17 5 45q-33 -39 -74.5 -61.5t-78.5 -22.5q-63 0 -96.5 46t-33.5 125q0 139 71.5 235t186.5 96q85 0 156 -46l-55 -326q-7 -42 -7 -51q0 -14 11 -18.5t43 -5.5v-41q-47 -14 -84 -14q-24 0 -34 9.5t-10 29.5zM191 52q37 0 79.5 35.5t72.5 81.5l40 237
q-28 21 -81 21q-78 0 -130 -76.5t-52 -187.5t71 -111zM269 647q0 -22 -15 -38.5t-37 -16.5t-35 14.5t-13 34.5q0 24 16 38.5t37 14.5t34 -14t13 -33zM469 647q0 -22 -15 -38.5t-37 -16.5t-35 14.5t-13 34.5q0 24 16 38.5t37 14.5t34 -14t13 -33z" />
    <glyph glyph-name="aring" unicode="&#xe5;" horiz-adv-x="516" 
d="M325 25q0 17 5 45q-33 -39 -74.5 -61.5t-78.5 -22.5q-63 0 -96.5 46t-33.5 125q0 139 71.5 235t186.5 96q85 0 156 -46l-55 -326q-7 -42 -7 -51q0 -14 11 -18.5t43 -5.5v-41q-47 -14 -84 -14q-24 0 -34 9.5t-10 29.5zM191 52q37 0 79.5 35.5t72.5 81.5l40 237
q-28 21 -81 21q-78 0 -130 -76.5t-52 -187.5t71 -111zM307 554q-38 0 -61.5 21t-23.5 56q0 46 30.5 80t79.5 34q38 0 61.5 -21t23.5 -56q0 -46 -30.5 -80t-79.5 -34zM312 598q25 0 39.5 19.5t14.5 45.5q0 19 -11 28.5t-28 9.5q-25 0 -39.5 -19.5t-14.5 -45.5q0 -19 11 -28.5
t28 -9.5z" />
    <glyph glyph-name="ae" unicode="&#xe6;" horiz-adv-x="717" 
d="M697 385q0 -160 -312 -182q-1 -10 -1 -31q0 -61 23 -91t78 -30q74 0 153 53l17 -61q-83 -57 -182 -57q-113 0 -148 90q-66 -90 -171 -90q-52 0 -90.5 27t-38.5 75q0 140 296 168l10 67q4 30 4 44q0 27 -17 40.5t-59 13.5q-67 0 -145 -40l-14 58q89 49 187 49
q106 0 118 -78q75 78 164 78q54 0 91 -26.5t37 -76.5zM568 426q-53 0 -101.5 -47t-70.5 -119q97 8 161 36.5t65 79.5q0 50 -54 50zM313 197q-38 -2 -73 -9t-68 -18.5t-52.5 -30t-19.5 -41.5t19 -36.5t49 -13.5q45 0 87.5 37t57.5 112z" />
    <glyph glyph-name="ccedilla" unicode="&#xe7;" horiz-adv-x="440" 
d="M100 -98l82 85q-137 15 -137 171q0 137 75.5 233.5t191.5 96.5q64 0 108 -34l-25 -59q-38 32 -92 32q-75 0 -130 -79.5t-55 -181.5q0 -115 102 -115q66 0 133 45l17 -60q-49 -36 -132 -48l-53 -52q41 -1 60.5 -19.5t19.5 -47.5q0 -43 -38.5 -73.5t-89.5 -30.5
q-44 0 -79 19l14 35q29 -16 64 -16q25 0 40.5 10t15.5 29q0 39 -88 42z" />
    <glyph glyph-name="egrave" unicode="&#xe8;" horiz-adv-x="450" 
d="M430 388q0 -82 -78.5 -134.5t-233.5 -56.5q-1 -9 -1 -27q0 -60 23 -89.5t80 -29.5q76 0 151 53l17 -61q-81 -57 -179 -57q-164 0 -164 173q0 143 78.5 236t181.5 93q55 0 90 -26.5t35 -73.5zM298 426q-52 0 -100 -49t-69 -123q39 2 75.5 9t72 20.5t57 38.5t21.5 58
q0 46 -57 46zM306 576l-34 -18l-138 161l88 26z" />
    <glyph glyph-name="eacute" unicode="&#xe9;" horiz-adv-x="450" 
d="M430 388q0 -82 -78.5 -134.5t-233.5 -56.5q-1 -9 -1 -27q0 -60 23 -89.5t80 -29.5q76 0 151 53l17 -61q-81 -57 -179 -57q-164 0 -164 173q0 143 78.5 236t181.5 93q55 0 90 -26.5t35 -73.5zM298 426q-52 0 -100 -49t-69 -123q39 2 75.5 9t72 20.5t57 38.5t21.5 58
q0 46 -57 46zM245 558l-34 20l122 167l83 -30z" />
    <glyph glyph-name="ecircumflex" unicode="&#xea;" horiz-adv-x="450" 
d="M430 388q0 -82 -78.5 -134.5t-233.5 -56.5q-1 -9 -1 -27q0 -60 23 -89.5t80 -29.5q76 0 151 53l17 -61q-81 -57 -179 -57q-164 0 -164 173q0 143 78.5 236t181.5 93q55 0 90 -26.5t35 -73.5zM298 426q-52 0 -100 -49t-69 -123q39 2 75.5 9t72 20.5t57 38.5t21.5 58
q0 46 -57 46zM305 742h42l77 -167l-34 -17l-76 94l-115 -94l-33 17z" />
    <glyph glyph-name="edieresis" unicode="&#xeb;" horiz-adv-x="450" 
d="M430 388q0 -82 -78.5 -134.5t-233.5 -56.5q-1 -9 -1 -27q0 -60 23 -89.5t80 -29.5q76 0 151 53l17 -61q-81 -57 -179 -57q-164 0 -164 173q0 143 78.5 236t181.5 93q55 0 90 -26.5t35 -73.5zM298 426q-52 0 -100 -49t-69 -123q39 2 75.5 9t72 20.5t57 38.5t21.5 58
q0 46 -57 46zM244 647q0 -22 -15 -38.5t-37 -16.5t-35 14.5t-13 34.5q0 24 16 38.5t37 14.5t34 -14t13 -33zM444 647q0 -22 -15 -38.5t-37 -16.5t-35 14.5t-13 34.5q0 24 16 38.5t37 14.5t34 -14t13 -33z" />
    <glyph glyph-name="igrave" unicode="&#xec;" horiz-adv-x="258" 
d="M191 380l-50 -276q-5 -31 -5 -40q0 -23 54 -23v-41q-37 -14 -87 -14q-44 0 -44 38q0 15 8 60l49 281q6 36 6 43q0 14 -13 19t-41 6l8 41q47 14 86 14q23 0 30.5 -8t7.5 -24q0 -24 -9 -76zM201 576l-34 -18l-138 161l88 26z" />
    <glyph glyph-name="iacute" unicode="&#xed;" horiz-adv-x="258" 
d="M191 380l-50 -276q-5 -31 -5 -40q0 -23 54 -23v-41q-37 -14 -87 -14q-44 0 -44 38q0 15 8 60l49 281q6 36 6 43q0 14 -13 19t-41 6l8 41q47 14 86 14q23 0 30.5 -8t7.5 -24q0 -24 -9 -76zM139 558l-34 20l122 167l83 -30z" />
    <glyph glyph-name="icircumflex" unicode="&#xee;" horiz-adv-x="258" 
d="M191 380l-50 -276q-5 -31 -5 -40q0 -23 54 -23v-41q-37 -14 -87 -14q-44 0 -44 38q0 15 8 60l49 281q6 36 6 43q0 14 -13 19t-41 6l8 41q47 14 86 14q23 0 30.5 -8t7.5 -24q0 -24 -9 -76zM167 742h42l77 -167l-34 -17l-76 94l-115 -94l-33 17z" />
    <glyph glyph-name="idieresis" unicode="&#xef;" horiz-adv-x="258" 
d="M191 380l-50 -276q-5 -31 -5 -40q0 -23 54 -23v-41q-37 -14 -87 -14q-44 0 -44 38q0 15 8 60l49 281q6 36 6 43q0 14 -13 19t-41 6l8 41q47 14 86 14q23 0 30.5 -8t7.5 -24q0 -24 -9 -76zM128 647q0 -22 -15 -38.5t-37 -16.5t-35 14.5t-13 34.5q0 24 16 38.5t37 14.5
t34 -14t13 -33zM328 647q0 -22 -15 -38.5t-37 -16.5t-35 14.5t-13 34.5q0 24 16 38.5t37 14.5t34 -14t13 -33z" />
    <glyph glyph-name="eth" unicode="&#xf0;" horiz-adv-x="498" 
d="M182 516l8 57l102 45q-36 34 -89 61l33 55q68 -26 123 -87l111 49l-8 -57l-71 -31q70 -104 70 -234q0 -94 -28.5 -181t-89 -147t-140.5 -60q-76 0 -117 49t-41 134q0 121 65.5 211t176.5 90q52 0 93 -19q-16 75 -54 128zM212 47q50 0 91.5 52t63 123.5t21.5 139.5v19
q-43 27 -94 27q-78 0 -127 -68.5t-49 -163.5q0 -57 23 -93t71 -36z" />
    <glyph glyph-name="ntilde" unicode="&#xf1;" horiz-adv-x="541" 
d="M124 0h-71l63 365q6 36 6 43q0 14 -12 19t-42 6l8 41q54 14 85 14q23 0 31 -8t8 -24q0 -13 -4 -45q70 77 153 77q56 0 89 -35t33 -94q0 -43 -11 -106l-25 -149q-5 -29 -5 -40q0 -14 13 -18.5t41 -4.5v-41q-49 -14 -88 -14q-24 0 -34 9.5t-10 29.5q0 8 8 60l26 154
q14 87 14 111q0 31 -16.5 51.5t-49.5 20.5q-41 0 -84.5 -34.5t-71.5 -78.5zM428 721l36 -12q-36 -118 -100 -118q-21 0 -69 22t-61 22q-27 0 -48 -57l-36 12q36 118 100 118q21 0 69 -22t61 -22q27 0 48 57z" />
    <glyph glyph-name="ograve" unicode="&#xf2;" horiz-adv-x="497" 
d="M281 427q-66 0 -114.5 -74t-48.5 -185q0 -121 98 -121q66 0 114.5 74t48.5 185q0 121 -98 121zM204 -14q-74 0 -116.5 46t-42.5 132q0 60 15.5 116.5t45 103.5t78 75.5t109.5 28.5q74 0 116.5 -46t42.5 -132q0 -60 -15.5 -116.5t-45 -103.5t-78 -75.5t-109.5 -28.5z
M333 576l-34 -18l-138 161l88 26z" />
    <glyph glyph-name="oacute" unicode="&#xf3;" horiz-adv-x="497" 
d="M281 427q-66 0 -114.5 -74t-48.5 -185q0 -121 98 -121q66 0 114.5 74t48.5 185q0 121 -98 121zM204 -14q-74 0 -116.5 46t-42.5 132q0 60 15.5 116.5t45 103.5t78 75.5t109.5 28.5q74 0 116.5 -46t42.5 -132q0 -60 -15.5 -116.5t-45 -103.5t-78 -75.5t-109.5 -28.5z
M250 558l-34 20l122 167l83 -30z" />
    <glyph glyph-name="ocircumflex" unicode="&#xf4;" horiz-adv-x="497" 
d="M281 427q-66 0 -114.5 -74t-48.5 -185q0 -121 98 -121q66 0 114.5 74t48.5 185q0 121 -98 121zM204 -14q-74 0 -116.5 46t-42.5 132q0 60 15.5 116.5t45 103.5t78 75.5t109.5 28.5q74 0 116.5 -46t42.5 -132q0 -60 -15.5 -116.5t-45 -103.5t-78 -75.5t-109.5 -28.5z
M301 742h42l77 -167l-34 -17l-76 94l-115 -94l-33 17z" />
    <glyph glyph-name="otilde" unicode="&#xf5;" horiz-adv-x="497" 
d="M281 427q-66 0 -114.5 -74t-48.5 -185q0 -121 98 -121q66 0 114.5 74t48.5 185q0 121 -98 121zM204 -14q-74 0 -116.5 46t-42.5 132q0 60 15.5 116.5t45 103.5t78 75.5t109.5 28.5q74 0 116.5 -46t42.5 -132q0 -60 -15.5 -116.5t-45 -103.5t-78 -75.5t-109.5 -28.5z
M413 721l36 -12q-36 -118 -100 -118q-21 0 -69 22t-61 22q-27 0 -48 -57l-36 12q36 118 100 118q21 0 69 -22t61 -22q27 0 48 57z" />
    <glyph glyph-name="odieresis" unicode="&#xf6;" horiz-adv-x="497" 
d="M281 427q-66 0 -114.5 -74t-48.5 -185q0 -121 98 -121q66 0 114.5 74t48.5 185q0 121 -98 121zM204 -14q-74 0 -116.5 46t-42.5 132q0 60 15.5 116.5t45 103.5t78 75.5t109.5 28.5q74 0 116.5 -46t42.5 -132q0 -60 -15.5 -116.5t-45 -103.5t-78 -75.5t-109.5 -28.5z
M250 647q0 -22 -15 -38.5t-37 -16.5t-35 14.5t-13 34.5q0 24 16 38.5t37 14.5t34 -14t13 -33zM450 647q0 -22 -15 -38.5t-37 -16.5t-35 14.5t-13 34.5q0 24 16 38.5t37 14.5t34 -14t13 -33z" />
    <glyph glyph-name="divide" unicode="&#xf7;" 
d="M515 278h-450v52h450v-52zM235 464q0 22 16.5 38.5t38.5 16.5t38.5 -16.5t16.5 -38.5t-16.5 -38.5t-38.5 -16.5t-38.5 16.5t-16.5 38.5zM235 144q0 22 16.5 38.5t38.5 16.5t38.5 -16.5t16.5 -38.5t-16.5 -38.5t-38.5 -16.5t-38.5 16.5t-16.5 38.5z" />
    <glyph glyph-name="oslash" unicode="&#xf8;" horiz-adv-x="503" 
d="M207 -14q-69 0 -112 41l-47 -52h-69l86 95q-17 40 -17 94q0 60 15.5 116.5t45 103.5t78 75.5t109.5 28.5q68 0 111 -41l47 52h70l-87 -96q18 -37 18 -93q0 -60 -15.5 -116.5t-45 -103.5t-78 -75.5t-109.5 -28.5zM382 306q0 12 -2 34l-237 -260q24 -33 76 -33
q66 0 114.5 74t48.5 185zM284 427q-66 0 -114.5 -74t-48.5 -185q0 -24 2 -34l236 260q-24 33 -75 33z" />
    <glyph glyph-name="ugrave" unicode="&#xf9;" horiz-adv-x="535" 
d="M480 474l-63 -370q-4 -23 -4 -40q0 -23 54 -23v-41q-50 -14 -82 -14q-46 0 -46 38q0 7 5 47q-75 -85 -157 -85q-56 0 -90 33.5t-34 90.5q0 35 6 75l29 180q6 36 6 43q0 14 -13 19t-41 6l8 41q42 14 85 14q40 0 40 -33q0 -17 -10 -75l-32 -190q-8 -56 -8 -73q0 -29 18 -47
t47 -18q43 0 86.5 35.5t73.5 83.5l50 303h72zM327 576l-34 -18l-138 161l88 26z" />
    <glyph glyph-name="uacute" unicode="&#xfa;" horiz-adv-x="535" 
d="M480 474l-63 -370q-4 -23 -4 -40q0 -23 54 -23v-41q-50 -14 -82 -14q-46 0 -46 38q0 7 5 47q-75 -85 -157 -85q-56 0 -90 33.5t-34 90.5q0 35 6 75l29 180q6 36 6 43q0 14 -13 19t-41 6l8 41q42 14 85 14q40 0 40 -33q0 -17 -10 -75l-32 -190q-8 -56 -8 -73q0 -29 18 -47
t47 -18q43 0 86.5 35.5t73.5 83.5l50 303h72zM283 558l-34 20l122 167l83 -30z" />
    <glyph glyph-name="ucircumflex" unicode="&#xfb;" horiz-adv-x="535" 
d="M480 474l-63 -370q-4 -23 -4 -40q0 -23 54 -23v-41q-50 -14 -82 -14q-46 0 -46 38q0 7 5 47q-75 -85 -157 -85q-56 0 -90 33.5t-34 90.5q0 35 6 75l29 180q6 36 6 43q0 14 -13 19t-41 6l8 41q42 14 85 14q40 0 40 -33q0 -17 -10 -75l-32 -190q-8 -56 -8 -73q0 -29 18 -47
t47 -18q43 0 86.5 35.5t73.5 83.5l50 303h72zM305 742h42l77 -167l-34 -17l-76 94l-115 -94l-33 17z" />
    <glyph glyph-name="udieresis" unicode="&#xfc;" horiz-adv-x="535" 
d="M480 474l-63 -370q-4 -23 -4 -40q0 -23 54 -23v-41q-50 -14 -82 -14q-46 0 -46 38q0 7 5 47q-75 -85 -157 -85q-56 0 -90 33.5t-34 90.5q0 35 6 75l29 180q6 36 6 43q0 14 -13 19t-41 6l8 41q42 14 85 14q40 0 40 -33q0 -17 -10 -75l-32 -190q-8 -56 -8 -73q0 -29 18 -47
t47 -18q43 0 86.5 35.5t73.5 83.5l50 303h72zM257 647q0 -22 -15 -38.5t-37 -16.5t-35 14.5t-13 34.5q0 24 16 38.5t37 14.5t34 -14t13 -33zM457 647q0 -22 -15 -38.5t-37 -16.5t-35 14.5t-13 34.5q0 24 16 38.5t37 14.5t34 -14t13 -33z" />
    <glyph glyph-name="yacute" unicode="&#xfd;" horiz-adv-x="458" 
d="M227 99l88 177q46 93 46 150q0 26 -7 45l63 18q16 -27 16 -67q0 -69 -54 -171l-159 -303q-18 -35 -28 -52.5t-28.5 -44t-35 -39.5t-40.5 -23t-52 -10q-44 0 -76 17l18 59q25 -15 53 -15q40 0 67 33t62 103l17 34l-80 387q-5 23 -13.5 29t-44.5 7l8 41q33 14 65 14
q25 0 35 -12.5t19 -57.5zM242 558l-34 20l122 167l83 -30z" />
    <glyph glyph-name="thorn" unicode="&#xfe;" horiz-adv-x="510" 
d="M238 726l-55 -316q75 78 151 78q64 0 97.5 -47t33.5 -121q0 -141 -72.5 -237.5t-187.5 -96.5q-51 0 -93 14l-38 -221h-71l160 931zM319 422q-37 0 -81 -34t-72 -79l-42 -244q33 -18 81 -18q83 0 135 78.5t52 186.5q0 48 -18 79t-55 31z" />
    <glyph glyph-name="ydieresis" unicode="&#xff;" horiz-adv-x="458" 
d="M227 99l88 177q46 93 46 150q0 26 -7 45l63 18q16 -27 16 -67q0 -69 -54 -171l-159 -303q-18 -35 -28 -52.5t-28.5 -44t-35 -39.5t-40.5 -23t-52 -10q-44 0 -76 17l18 59q25 -15 53 -15q40 0 67 33t62 103l17 34l-80 387q-5 23 -13.5 29t-44.5 7l8 41q33 14 65 14
q25 0 35 -12.5t19 -57.5zM222 647q0 -22 -15 -38.5t-37 -16.5t-35 14.5t-13 34.5q0 24 16 38.5t37 14.5t34 -14t13 -33zM422 647q0 -22 -15 -38.5t-37 -16.5t-35 14.5t-13 34.5q0 24 16 38.5t37 14.5t34 -14t13 -33z" />
    <glyph glyph-name="dotlessi" unicode="&#x131;" horiz-adv-x="258" 
d="M191 380l-50 -276q-5 -31 -5 -40q0 -23 54 -23v-41q-37 -14 -87 -14q-44 0 -44 38q0 15 8 60l49 281q6 36 6 43q0 14 -13 19t-41 6l8 41q47 14 86 14q23 0 30.5 -8t7.5 -24q0 -24 -9 -76z" />
    <glyph glyph-name="Lslash" unicode="&#x141;" horiz-adv-x="520" 
d="M24 257l10 58l77 20l59 335h80l-55 -314l173 45l-11 -58l-172 -45l-41 -232h309l-11 -66h-390l49 277z" />
    <glyph glyph-name="lslash" unicode="&#x142;" horiz-adv-x="269" 
d="M36 306v55l81 32l56 317l75 16l-54 -302l75 30v-55l-85 -34l-46 -260q-5 -29 -5 -41q0 -14 13 -18.5t42 -4.5v-41q-44 -14 -88 -14q-45 0 -45 36q0 17 8 62l44 250z" />
    <glyph glyph-name="OE" unicode="&#x152;" horiz-adv-x="871" 
d="M778 0h-445q-131 0 -199.5 72.5t-68.5 189.5q0 176 101 292t278 116h449l-11 -67h-298l-38 -217h239l-11 -67h-240l-44 -252h299zM409 66l95 538h-77q-90 0 -155 -50.5t-94.5 -125t-29.5 -161.5q0 -93 51 -147t145 -54h65z" />
    <glyph glyph-name="oe" unicode="&#x153;" horiz-adv-x="773" 
d="M204 -14q-74 0 -116.5 46t-42.5 132q0 60 15.5 116.5t45 103.5t78 75.5t109.5 28.5q112 0 146 -102q37 49 86.5 75.5t102.5 26.5q55 0 90 -26.5t35 -73.5q0 -82 -78.5 -134.5t-233.5 -56.5q-1 -9 -1 -27q0 -60 23 -89.5t80 -29.5q76 0 151 53l17 -61q-81 -57 -179 -57
q-115 0 -150 92q-67 -92 -178 -92zM281 427q-66 0 -114.5 -74t-48.5 -185q0 -121 98 -121q66 0 114.5 74t48.5 185q0 121 -98 121zM621 426q-52 0 -100 -49t-69 -123q39 2 75.5 9t72 20.5t57 38.5t21.5 58q0 46 -57 46z" />
    <glyph glyph-name="Scaron" unicode="&#x160;" horiz-adv-x="508" 
d="M190 -14q-109 0 -185 50l25 72q80 -53 168 -53q29 0 57 7t52.5 21t40 39t15.5 56q0 12 -3.5 23t-7.5 20t-14.5 19.5l-17 16.5t-23 17.5t-24.5 16.5l-30 18t-31 19q-55 34 -83.5 69t-28.5 89q0 96 66.5 147t163.5 51q101 0 163 -37l-24 -70q-55 37 -138 37
q-63 0 -107 -29.5t-44 -91.5q0 -14 5.5 -27t11.5 -22t21 -20.5t23 -17t30 -18t29 -17.5q37 -23 53.5 -34.5t42.5 -35t37 -49t11 -57.5q0 -97 -67.5 -153t-186.5 -56zM343 733h-42l-77 142l34 17l76 -74l115 74l33 -17z" />
    <glyph glyph-name="scaron" unicode="&#x161;" horiz-adv-x="376" 
d="M318 129q0 -65 -45 -104t-125 -39q-83 0 -148 48l28 57q21 -17 56 -31t70 -14q41 0 68 22t27 56q0 24 -19.5 43.5t-46.5 35.5l-54.5 33.5t-47 45.5t-19.5 63q0 66 46 104.5t117 38.5q68 0 121 -31l-25 -58q-45 29 -99 29q-42 0 -66.5 -21t-24.5 -53q0 -24 19.5 -43.5
t46.5 -35t54.5 -33.5t47 -47t19.5 -66zM241 563h-42l-77 167l34 17l76 -94l115 94l33 -17z" />
    <glyph glyph-name="Ydieresis" unicode="&#x178;" horiz-adv-x="595" 
d="M215 0l47 268l-160 402h86l124 -330l225 330h92l-289 -407l-45 -263h-80zM328 810q0 -22 -15 -38.5t-37 -16.5t-35 14.5t-13 34.5q0 24 16 38.5t37 14.5t34 -14t13 -33zM528 810q0 -22 -15 -38.5t-37 -16.5t-35 14.5t-13 34.5q0 24 16 38.5t37 14.5t34 -14t13 -33z" />
    <glyph glyph-name="Zcaron" unicode="&#x17d;" horiz-adv-x="607" 
d="M15 0v40l472 563h-353l12 67h461v-42l-473 -561h388l-11 -67h-496zM382 733h-42l-77 142l34 17l76 -74l115 74l33 -17z" />
    <glyph glyph-name="zcaron" unicode="&#x17e;" horiz-adv-x="450" 
d="M15 0v34l293 378h-238l10 62h335v-36l-298 -376h274l-10 -62h-366zM265 563h-42l-77 167l34 17l76 -94l115 94l33 -17z" />
    <glyph glyph-name="florin" unicode="&#x192;" 
d="M133 361l9 49h109l7 39q19 110 69.5 160.5t122.5 50.5q48 0 82 -17l-24 -57q-26 12 -56 12q-47 0 -77.5 -32t-46.5 -123l-6 -33h145l-9 -49h-144l-54 -330q-15 -86 -49.5 -135t-104.5 -49q-49 0 -88 18l18 59q32 -15 64 -15q38 0 58 30.5t33 109.5l52 312h-110z" />
    <glyph glyph-name="circumflex" unicode="&#x2c6;" horiz-adv-x="400" 
d="M264 742h42l77 -167l-34 -17l-76 94l-115 -94l-33 17z" />
    <glyph glyph-name="caron" unicode="&#x2c7;" horiz-adv-x="400" 
d="M269 563h-42l-77 167l34 17l76 -94l115 94l33 -17z" />
    <glyph glyph-name="breve" unicode="&#x2d8;" horiz-adv-x="400" 
d="M268 632q40 0 72 28t43 69l41 -7q-13 -70 -57.5 -111t-104.5 -41q-51 0 -81.5 30.5t-30.5 84.5q0 20 4 37l40 7v-11q0 -39 18 -62.5t56 -23.5z" />
    <glyph glyph-name="dotaccent" unicode="&#x2d9;" horiz-adv-x="400" 
d="M320 647q0 -23 -15.5 -40.5t-39.5 -17.5q-23 0 -37 15t-14 37q0 25 17 40.5t39 15.5t36 -15t14 -35z" />
    <glyph glyph-name="ring" unicode="&#x2da;" horiz-adv-x="400" 
d="M265 554q-38 0 -61.5 21t-23.5 56q0 46 30.5 80t79.5 34q38 0 61.5 -21t23.5 -56q0 -46 -30.5 -80t-79.5 -34zM270 598q25 0 39.5 19.5t14.5 45.5q0 19 -11 28.5t-28 9.5q-25 0 -39.5 -19.5t-14.5 -45.5q0 -19 11 -28.5t28 -9.5z" />
    <glyph glyph-name="ogonek" unicode="&#x2db;" horiz-adv-x="400" 
d="M189 0h53q-52 -28 -88.5 -72t-36.5 -87q0 -35 31 -35q28 0 61 24l14 -31q-52 -34 -101 -34q-37 0 -57 17.5t-20 43.5q0 51 40 101t104 73z" />
    <glyph glyph-name="tilde" unicode="&#x2dc;" horiz-adv-x="400" 
d="M388 721l36 -12q-36 -118 -100 -118q-21 0 -69 22t-61 22q-27 0 -48 -57l-36 12q36 118 100 118q21 0 69 -22t61 -22q27 0 48 57z" />
    <glyph glyph-name="hungarumlaut" unicode="&#x2dd;" horiz-adv-x="400" 
d="M135 559l-30 17l104 164l72 -43zM295 559l-30 17l104 164l72 -43z" />
    <glyph glyph-name="pi" unicode="&#x3c0;" horiz-adv-x="601" 
d="M67 412l11 62h513l-11 -62h-110l-48 -272q-8 -40 -8 -61t11 -29.5t41 -8.5h11v-41q-22 -6 -65 -6q-70 0 -70 63q0 22 9 72l48 283h-159l-43 -244q-16 -94 -16 -168h-72q0 68 21 189l39 223h-102z" />
    <glyph glyph-name="uni200A" unicode="&#x200a;" horiz-adv-x="50" 
 />
    <glyph glyph-name="endash" unicode="&#x2013;" horiz-adv-x="600" 
d="M31 220l11 60h530l-11 -60h-530z" />
    <glyph glyph-name="emdash" unicode="&#x2014;" horiz-adv-x="900" 
d="M31 220l11 60h830l-11 -60h-830z" />
    <glyph glyph-name="quoteleft" unicode="&#x2018;" horiz-adv-x="240" 
d="M232 684l29 -33q-84 -68 -84 -167v-26h-78v17q0 125 133 209z" />
    <glyph glyph-name="quoteright" unicode="&#x2019;" horiz-adv-x="240" 
d="M117 444l-29 33q84 68 84 167v26h78v-17q0 -125 -133 -209z" />
    <glyph glyph-name="quotesinglbase" unicode="&#x201a;" horiz-adv-x="221" 
d="M-5 -124l-29 33q84 68 84 167v26h78v-17q0 -125 -133 -209z" />
    <glyph glyph-name="quotedblleft" unicode="&#x201c;" horiz-adv-x="404" 
d="M396 684l29 -33q-84 -68 -84 -167v-26h-78v17q0 125 133 209zM232 684l29 -33q-84 -68 -84 -167v-26h-78v17q0 125 133 209z" />
    <glyph glyph-name="quotedblright" unicode="&#x201d;" horiz-adv-x="404" 
d="M117 444l-29 33q84 68 84 167v26h78v-17q0 -125 -133 -209zM281 444l-29 33q84 68 84 167v26h78v-17q0 -125 -133 -209z" />
    <glyph glyph-name="quotedblbase" unicode="&#x201e;" horiz-adv-x="385" 
d="M-5 -124l-29 33q84 68 84 167v26h78v-17q0 -125 -133 -209zM159 -124l-29 33q84 68 84 167v26h78v-17q0 -125 -133 -209z" />
    <glyph glyph-name="dagger" unicode="&#x2020;" horiz-adv-x="514" 
d="M228 -84h-68l89 490l-176 -3l11 66l176 -2l33 203h68l-39 -203l176 2l-11 -66l-176 3z" />
    <glyph glyph-name="daggerdbl" unicode="&#x2021;" horiz-adv-x="514" 
d="M272 180l176 3l-11 -66l-176 2l-33 -203h-68l39 203l-176 -2l11 66l176 -3l39 226l-176 -3l11 66l176 -2l33 203h68l-39 -203l176 2l-11 -66l-176 3z" />
    <glyph glyph-name="bullet" unicode="&#x2022;" horiz-adv-x="400" 
d="M345 312q0 -57 -38.5 -99.5t-98.5 -42.5q-59 0 -93 37t-34 90q0 63 43 101t97 38q56 0 90 -37t34 -87z" />
    <glyph glyph-name="ellipsis" unicode="&#x2026;" horiz-adv-x="750" 
d="M156 51q0 -26 -18 -45.5t-45 -19.5t-42.5 17t-15.5 41q0 29 19.5 46.5t44.5 17.5t41 -17t16 -40zM406 51q0 -26 -18 -45.5t-45 -19.5t-42.5 17t-15.5 41q0 29 19.5 46.5t44.5 17.5t41 -17t16 -40zM656 51q0 -26 -18 -45.5t-45 -19.5t-42.5 17t-15.5 41q0 29 19.5 46.5
t44.5 17.5t41 -17t16 -40z" />
    <glyph glyph-name="perthousand" unicode="&#x2030;" horiz-adv-x="1145" 
d="M907 -14q-61 0 -95 33.5t-34 91.5q0 85 48 138.5t126 53.5q62 0 95.5 -33.5t33.5 -91.5q0 -85 -48 -138.5t-126 -53.5zM913 36q43 0 74 37t31 103q0 77 -72 77q-44 0 -75 -37t-31 -103q0 -77 73 -77zM226 343q-61 0 -95 33.5t-34 91.5q0 85 48 138.5t126 53.5
q62 0 95.5 -33.5t33.5 -91.5q0 -85 -48 -138.5t-126 -53.5zM232 393q43 0 74 37t31 103q0 77 -72 77q-44 0 -75 -37t-31 -103q0 -77 73 -77zM544 -14q-61 0 -95 33.5t-34 91.5q0 85 48 138.5t126 53.5q62 0 95.5 -33.5t33.5 -91.5q0 -85 -48 -138.5t-126 -53.5zM550 36
q43 0 74 37t31 103q0 77 -72 77q-44 0 -75 -37t-31 -103q0 -77 73 -77zM136 -14l-42 37l586 637l42 -37z" />
    <glyph glyph-name="guilsinglleft" unicode="&#x2039;" horiz-adv-x="342" 
d="M135 234l110 -170l-46 -33l-149 207l214 207l38 -35z" />
    <glyph glyph-name="guilsinglright" unicode="&#x203a;" horiz-adv-x="342" 
d="M207 242l-110 170l46 33l149 -207l-214 -207l-38 35z" />
    <glyph glyph-name="fraction" unicode="&#x2044;" horiz-adv-x="200" 
d="M-155 -14l-42 37l586 637l42 -37z" />
    <glyph glyph-name="zero.sups" unicode="&#x2070;" horiz-adv-x="400" 
d="M209 318q-62 0 -96 39t-34 104q0 66 21 126t72 104.5t123 44.5q64 0 96.5 -38t32.5 -104q0 -49 -12.5 -95.5t-37 -88t-67.5 -67t-98 -25.5zM216 375q45 0 77.5 35.5t46.5 83t14 98.5q0 87 -69 87q-65 0 -100.5 -67.5t-35.5 -149.5q0 -87 67 -87z" />
    <glyph glyph-name="four.sups" unicode="&#x2074;" horiz-adv-x="400" 
d="M397 731l-50 -245h69l-10 -55h-70l-21 -104h-68l21 104h-210v34l294 266h45zM308 623l-150 -137h122z" />
    <glyph glyph-name="five.sups" unicode="&#x2075;" horiz-adv-x="400" 
d="M214 317q-90 0 -146 49l41 48q42 -40 103 -40q106 0 106 72q0 68 -123 68h-75l65 214h228l-14 -59h-169l-32 -101h20q73 0 120.5 -30t47.5 -87q0 -65 -47.5 -99.5t-124.5 -34.5z" />
    <glyph glyph-name="six.sups" unicode="&#x2076;" horiz-adv-x="400" 
d="M415 681q-176 -33 -238 -124q47 19 95 19q58 0 93.5 -33.5t35.5 -79.5q0 -60 -50 -103t-129 -43q-65 0 -102.5 39t-37.5 102q0 110 93.5 183.5t231.5 94.5zM257 522q-50 0 -105 -23q-3 -17 -3 -34q0 -41 20 -66.5t57 -25.5q46 0 76.5 23.5t30.5 62.5q0 28 -20.5 45.5
t-55.5 17.5z" />
    <glyph glyph-name="seven.sups" unicode="&#x2077;" horiz-adv-x="400" 
d="M86 327l274 342h-233l15 59h299v-40l-276 -361h-79z" />
    <glyph glyph-name="eight.sups" unicode="&#x2078;" horiz-adv-x="400" 
d="M74 424q0 74 109 116q-51 37 -51 81q0 51 42 83t109 32q57 0 95.5 -25t38.5 -65q0 -71 -102 -111q69 -41 69 -94q0 -55 -45 -89.5t-122 -34.5q-63 0 -103 27.5t-40 79.5zM317 434q0 33 -76 74q-99 -28 -99 -80q0 -55 81 -55q40 0 67 17t27 44zM200 624q0 -29 63 -61
q86 30 86 76q0 20 -21 31t-52 11q-32 0 -54 -15.5t-22 -41.5z" />
    <glyph glyph-name="nine.sups" unicode="&#x2079;" horiz-adv-x="400" 
d="M86 372q177 32 238 124q-48 -19 -95 -19q-58 0 -93.5 33.5t-35.5 79.5q0 60 50 103t129 43q65 0 102.5 -39t37.5 -102q0 -110 -93.5 -183.5t-231.5 -94.5zM244 531q53 0 104 23q4 15 4 34q0 41 -20 66.5t-57 25.5q-46 0 -76.5 -23.5t-30.5 -62.5q0 -28 20.5 -45.5
t55.5 -17.5z" />
    <glyph glyph-name="Euro" unicode="&#x20ac;" 
d="M66 358l9 49h75q37 112 114 182.5t180 70.5q33 0 67.5 -10.5t52.5 -23.5l-25 -66q-44 30 -101 30q-69 0 -121.5 -51t-83.5 -132h204l-9 -49h-210q-8 -31 -13 -69h211l-9 -49h-206v-11q0 -173 123 -173q59 0 122 35l15 -65q-72 -40 -144 -40q-96 0 -146 66.5t-50 170.5v17
h-76l9 49h70q4 35 12 69h-70z" />
    <glyph glyph-name="trademark" unicode="&#x2122;" horiz-adv-x="879" 
d="M164 299l57 322h-131l9 49h319l-9 -49h-133l-57 -322h-55zM417 299l66 371h64l81 -286l179 286h62l-65 -371h-55l49 266l-171 -266h-29l-78 269l-48 -269h-55z" />
    <glyph glyph-name="Omega" unicode="&#x2126;" horiz-adv-x="713" 
d="M601 419q0 93 -52 142.5t-153 49.5q-108 0 -177.5 -83.5t-69.5 -204.5q0 -162 120 -246l-13 -77h-243l12 72h172q-48 28 -91 99.5t-43 163.5q0 150 93.5 249.5t250.5 99.5q140 0 212 -68.5t72 -185.5q0 -108 -63.5 -199.5t-170.5 -158.5h173l-12 -72h-256l13 77
q99 59 162.5 147.5t63.5 194.5z" />
    <glyph glyph-name="partialdiff" unicode="&#x2202;" horiz-adv-x="518" 
d="M423 493q0 72 -25.5 120.5t-83.5 48.5q-60 0 -125 -49l-31 49q85 64 169 64q48 0 83 -19t53.5 -52.5t26.5 -72.5t8 -86q0 -57 -10 -121.5t-34.5 -134.5t-59.5 -125.5t-90.5 -92t-122.5 -36.5q-68 0 -104.5 44t-36.5 111q0 111 74 186t179 75q31 0 65 -10t54 -24
q11 66 11 125zM288 332q-74 0 -124.5 -53t-50.5 -128q0 -46 21.5 -75t67.5 -29q62 0 113.5 71.5t80.5 179.5q-49 34 -108 34z" />
    <glyph glyph-name="Delta" unicode="&#x2206;" horiz-adv-x="643" 
d="M473 68l-99 478l-276 -478h375zM568 0h-568v40l374 630h51l143 -630v-40z" />
    <glyph glyph-name="product" unicode="&#x220f;" horiz-adv-x="731" 
d="M648 603l-127 -719h-80l127 719h-283l-127 -719h-80l127 719h-109l12 67h661l-12 -67h-109z" />
    <glyph glyph-name="summation" unicode="&#x2211;" horiz-adv-x="560" 
d="M103 642v28h486l-14 -67h-369l149 -330l-262 -322h369l-14 -67h-473v28l288 365z" />
    <glyph glyph-name="minus" unicode="&#x2212;" 
d="M515 278h-450v52h450v-52z" />
    <glyph glyph-name="radical" unicode="&#x221a;" 
d="M162 0l-88 422h77l57 -304l326 648h78l-395 -766h-55z" />
    <glyph glyph-name="infinity" unicode="&#x221e;" horiz-adv-x="833" 
d="M615 123q-62 0 -107.5 37.5t-73.5 94.5q-72 -132 -184 -132q-68 0 -112.5 52t-44.5 137t46 137t114 52q115 0 181 -133q70 133 184 133q68 0 112.5 -52t44.5 -137t-46 -137t-114 -52zM613 445q-85 0 -151 -132q26 -57 65 -95.5t86 -38.5t77.5 38t30.5 95q0 58 -29.5 95.5
t-78.5 37.5zM255 179q84 0 151 132q-27 58 -65.5 96t-85.5 38t-77.5 -38t-30.5 -95q0 -58 29.5 -95.5t78.5 -37.5z" />
    <glyph glyph-name="integral" unicode="&#x222b;" horiz-adv-x="358" 
d="M224 366l-10 -279q-7 -181 -43 -251.5t-114 -70.5q-42 0 -85 19l25 57q28 -12 57 -12q53 0 69.5 57.5t22.5 238.5l10 279q6 180 42 251t115 71q42 0 85 -19l-25 -57q-28 12 -57 12q-53 0 -69.5 -57.5t-22.5 -238.5z" />
    <glyph glyph-name="approxequal" unicode="&#x2248;" 
d="M466 463l49 -13q-28 -115 -114 -115q-35 0 -114 31t-107 31q-27 0 -42 -17.5t-24 -52.5l-49 13q28 115 114 115q35 0 114 -31t107 -31q27 0 42 17.5t24 52.5zM466 273l49 -13q-28 -115 -114 -115q-35 0 -114 31t-107 31q-27 0 -42 -17.5t-24 -52.5l-49 13q28 115 114 115
q35 0 114 -31t107 -31q27 0 42 17.5t24 52.5z" />
    <glyph glyph-name="notequal" unicode="&#x2260;" 
d="M515 183h-272l-67 -105h-57l67 105h-121v52h154l88 138h-242v52h275l66 104h57l-66 -104h118v-52h-151l-88 -138h239v-52z" />
    <glyph glyph-name="lessequal" unicode="&#x2264;" 
d="M515 0h-450v52h450v-52zM90 309v50l366 195l27 -49l-324 -171l324 -171l-27 -49z" />
    <glyph glyph-name="greaterequal" unicode="&#x2265;" 
d="M515 0h-450v52h450v-52zM490 359v-50l-366 -195l-27 49l324 171l-324 171l27 49z" />
    <glyph glyph-name="lozenge" unicode="&#x25ca;" 
d="M300 -14h-19l-233 337l233 337h19l233 -337zM290 59l179 263l-180 264l-178 -263z" />
    <glyph glyph-name="uniF8FF" unicode="&#xf8ff;" horiz-adv-x="3635" 
d="M486 474h167l-67 -427q-23 -146 -103 -213t-214 -67q-58 0 -110 17t-90.5 59t-38.5 103h187q3 -22 24 -34t47 -12q63 0 91.5 36t41.5 120q-69 -64 -160 -64q-90 0 -144 54.5t-54 141.5q0 114 83.5 207t202.5 93q91 0 128 -66h2zM331 134q53 0 89.5 36t36.5 89
q0 38 -24.5 62.5t-67.5 24.5q-53 0 -89.5 -36.5t-36.5 -90.5q0 -38 24 -61.5t68 -23.5zM968 131q53 0 89 35t36 89q0 38 -24.5 63t-67.5 25q-52 0 -88.5 -36t-36.5 -90q0 -39 24 -62.5t68 -23.5zM1124 474h167l-75 -474h-167l8 54h-1q-54 -68 -153 -68q-92 0 -146.5 59.5
t-54.5 148.5q0 112 80.5 203t197.5 91q42 0 79 -16t57 -46zM1392 474h167l-9 -63h1q65 77 163 77q150 0 150 -145q0 -21 -5 -58l-45 -285h-167l35 222q8 53 8 72q0 61 -62 61q-87 0 -105 -111l-38 -244h-167zM2445 0h-167l8 54h-2q-26 -34 -67.5 -51t-85.5 -17
q-91 0 -146 59t-55 148q0 111 81.5 203t197.5 92q42 0 79 -16t57 -46l53 337h167zM2549 0l121 763h167l-56 -351h2q69 76 162 76q75 0 112.5 -39.5t37.5 -109.5q0 -26 -4 -50l-46 -289h-167l39 243q4 26 4 43q0 69 -62 69q-46 0 -71.5 -32.5t-33.5 -79.5l-38 -243h-167z
M3221 474h167l-75 -474h-167zM3318 559q-35 0 -57.5 23t-22.5 57q0 41 32.5 74t76.5 33q35 0 57.5 -22.5t22.5 -56.5q0 -42 -33 -75t-76 -33zM701 -233v152h19v-152h-19zM766 -103v22h18v-22h-18zM766 -233v110h18v-110h-18zM847 -233h-18v152h19v-54q12 14 30 14
q23 0 35 -16.5t12 -38.5q0 -25 -13 -42t-35 -17q-20 0 -30 16v-14zM876 -220q15 0 22.5 13.5t7.5 28.5q0 42 -29 42q-30 0 -30 -42t29 -42zM956 -233v110h16v-17q10 19 24 19q10 0 19 -6l-6 -17q-6 4 -14 4q-21 0 -21 -35v-58h-18zM1083 -235q-51 1 -51 57q0 26 13.5 41.5
t37.5 15.5t38 -15t14 -40q0 -59 -52 -59zM1083 -220q33 0 33 43q0 19 -9.5 30t-23.5 11q-32 0 -32 -42t32 -42zM1162 -200l18 3q3 -23 29 -23q25 0 25 17q0 10 -17 14t-34.5 11.5t-17.5 25.5q0 31 40 31t44 -30l-18 -3q-6 18 -24 18q-24 0 -24 -14q0 -2 0.5 -3.5t1 -2.5
t1.5 -2t3 -2l3 -1.5t4 -1.5l4.5 -1.5t5.5 -1t6 -1.5q21 -5 31 -12t10 -22q0 -16 -12.5 -25t-31.5 -9q-41 0 -47 35zM1329 -195h-25v26h25v-26zM1403 -233h-18v110h16v-15q14 17 34 17q22 0 31 -19q12 19 33 19q34 0 34 -36v-76h-18v71q0 25 -20 25q-27 0 -27 -31v-65h-18v72
q0 24 -20 24q-27 0 -27 -37v-59zM1660 -233h-17v16q-12 -18 -34 -18q-38 0 -38 40v72h19v-70q0 -26 22 -26q29 0 29 34v62h19v-110zM1620 -109h-16l14 29h24zM1841 -103h-19v22h19v-22zM1841 -233h-19v110h19v-110zM1954 -193l18 -2q-6 -40 -46 -40q-25 0 -37.5 15.5
t-12.5 41.5t12.5 41.5t37.5 15.5q38 0 44 -34l-18 -3q-5 22 -26 22q-30 0 -30 -42t30 -42q22 0 28 27zM2074 -219q-19 -16 -40 -16q-38 0 -38 31q0 18 13.5 25.5t35 10t28.5 5.5v6q0 21 -27 21q-23 0 -28 -21l-18 3q7 33 48 33q44 0 44 -35v-41q0 -27 5 -36h-19q-2 4 -4 14z
M2073 -188v10q-6 -3 -21.5 -5t-25.5 -6t-10 -14q0 -18 22 -18q15 0 25 8.5t10 24.5zM2276 -233h-18l-41 110h19l31 -88l31 88h19zM2367 -103h-19v22h19v-22zM2367 -233h-19v110h19v-110zM2611 -197l20 -3q-12 -35 -49 -35q-52 0 -52 56q0 27 13.5 42.5t37.5 15.5t37 -16
t13 -38v-8h-82q1 -15 10 -26t23 -11q24 0 29 23zM2550 -167h62q-3 31 -30 31q-28 0 -32 -31zM3166 -233h-19v95h-16v15h16v14q0 30 30 30q12 0 18 -2l-3 -16q-6 1 -13 1q-13 0 -13 -17v-10h21v-15h-21v-95zM3268 -109h-15l13 29h25zM3458 -4q-28 0 -47.5 18.5t-19.5 47.5
t19.5 47t47.5 18t47.5 -18t19.5 -47t-19.5 -47.5t-47.5 -18.5zM3458 10q20 0 34.5 15t14.5 37t-14.5 36.5t-34.5 14.5t-34.5 -14.5t-14.5 -36.5t14.5 -37t34.5 -15zM3446 25h-14v73h28q28 0 28 -21q0 -18 -19 -20l20 -32h-16l-17 31h-10v-31zM3459 87h-13v-19h13q15 0 15 10
q0 9 -15 9zM2171 -195h-25v26h25v-26zM2837 -195h-26v26h26v-26zM2196 131q53 0 89 35t36 89q0 38 -24.5 63t-67.5 25q-52 0 -88.5 -36t-36.5 -90q0 -39 24 -62.5t68 -23.5zM1694 -200l18 3q3 -23 29 -23q25 0 25 17q0 10 -17 14t-34.5 11.5t-17.5 25.5q0 31 40 31t44 -30
l-18 -3q-6 18 -24 18q-24 0 -24 -14q0 -2 0.5 -3.5t1 -2.5t1.5 -2t3 -2l3 -1.5t4 -1.5l4.5 -1.5t5.5 -1t6 -1.5q21 -5 31 -12t10 -22q0 -16 -12.5 -25t-31.5 -9q-41 0 -47 35zM2497 -233h-18v14q-10 -16 -30 -16q-22 0 -35 16t-13 43q0 22 12 38.5t35 16.5q18 0 30 -14v54
h19v-152zM2450 -220q30 0 30 42q0 18 -8 30t-23 12q-29 0 -29 -42t30 -42zM2711 -235q-51 1 -51 57q0 26 13.5 41.5t37.5 15.5t38 -15t14 -40q0 -59 -52 -59zM2711 -220q33 0 33 43q0 19 -9.5 30t-23.5 11q-32 0 -32 -42t32 -42zM2962 -193l18 -2q-6 -40 -46 -40
q-25 0 -37.5 15.5t-12.5 41.5t12.5 41.5t37.5 15.5q38 0 44 -34l-18 -3q-5 22 -26 22q-30 0 -30 -42t30 -42q22 0 28 27zM3083 -219q-19 -16 -40 -16q-38 0 -38 31q0 18 13.5 25.5t35 10t28.5 5.5v6q0 21 -27 21q-23 0 -28 -21l-18 3q7 33 48 33q44 0 44 -35v-41
q0 -27 5 -36h-19q-2 4 -4 14zM3082 -188v10q-6 -3 -21.5 -5t-25.5 -6t-10 -14q0 -18 22 -18q15 0 25 8.5t10 24.5zM3293 -197l20 -3q-12 -35 -49 -35q-52 0 -52 56q0 27 13.5 42.5t37.5 15.5t37 -16t13 -38v-8h-82q1 -15 10 -26t23 -11q24 0 29 23zM3232 -167h62
q-3 31 -30 31q-28 0 -32 -31z" />
    <glyph glyph-name="fi" unicode="&#xfb01;" horiz-adv-x="597" 
d="M212 412l-81 -473q-15 -88 -48.5 -131t-101.5 -43q-45 0 -76 17l19 59q26 -14 54 -14q39 0 55.5 27.5t26.5 88.5l81 469h-78l12 62h77l7 42q19 114 72.5 162t117.5 48q43 0 67 -16l-24 -58q-18 12 -45 12q-92 0 -119 -160l-5 -30h114l-10 -62h-115zM530 380l-50 -276
q-5 -31 -5 -40q0 -23 54 -23v-41q-37 -14 -87 -14q-44 0 -44 38q0 15 8 60l49 281q6 36 6 43q0 14 -13 19t-41 6l8 41q47 14 86 14q23 0 30.5 -8t7.5 -24q0 -24 -9 -76zM582 647q0 -23 -15.5 -40.5t-39.5 -17.5q-23 0 -37 15t-14 37q0 25 17 40.5t39 15.5t36 -15t14 -35z
" />
    <glyph glyph-name="fl" unicode="&#xfb02;" horiz-adv-x="586" 
d="M212 412l-81 -473q-15 -88 -48.5 -131t-101.5 -43q-45 0 -76 17l19 59q26 -14 54 -14q39 0 55.5 27.5t26.5 88.5l81 469h-78l12 62h77l7 42q19 114 72.5 162t117.5 48q43 0 67 -16l-24 -58q-18 12 -45 12q-92 0 -119 -160l-5 -30h114l-10 -62h-115zM517 0
q-44 -14 -88 -14q-45 0 -45 36q0 17 8 62l110 626l75 16l-110 -621q-5 -29 -5 -41q0 -14 13 -18.5t42 -4.5v-41z" />
    <glyph glyph-name="a.smcp" horiz-adv-x="559" 
d="M400 0l-31 136h-201l-81 -136h-90l312 503h47l126 -503h-82zM314 382l-111 -186h153z" />
    <glyph glyph-name="b.smcp" horiz-adv-x="498" 
d="M39 0l97 503h156q74 0 111 -30.5t37 -83.5q0 -89 -100 -118q43 -9 67 -40t24 -74q0 -76 -53.5 -116.5t-143.5 -40.5h-195zM159 234l-34 -171h96q60 0 96 24.5t36 74.5q0 72 -119 72h-75zM199 439l-29 -144h60q57 0 96 23t39 65q0 31 -21 43.5t-65 12.5h-80z" />
    <glyph glyph-name="c.smcp" horiz-adv-x="544" 
d="M289 -14q-110 0 -171.5 61t-61.5 161q0 131 85.5 220t232.5 89q79 0 141 -30l-22 -63q-56 28 -120 28q-110 0 -174.5 -68t-64.5 -174q0 -76 44.5 -116.5t126.5 -40.5q68 0 148 33l11 -64q-72 -36 -175 -36z" />
    <glyph glyph-name="d.smcp" horiz-adv-x="592" 
d="M39 0l96 503h170q120 0 182.5 -53t62.5 -159q0 -132 -78 -211.5t-239 -79.5h-194zM199 439l-75 -376h110q112 0 175 58.5t63 168.5q0 149 -169 149h-104z" />
    <glyph glyph-name="e.smcp" horiz-adv-x="453" 
d="M39 0l97 503h311l-11 -64h-237l-28 -144h190l-10 -62h-192l-33 -170h239l-11 -63h-315z" />
    <glyph glyph-name="f.smcp" horiz-adv-x="444" 
d="M39 0l97 503h310l-11 -64h-236l-29 -147h195l-11 -62h-195l-45 -230h-75z" />
    <glyph glyph-name="g.smcp" horiz-adv-x="586" 
d="M289 -13q-107 0 -170 60.5t-63 160.5q0 134 91 221.5t244 87.5q88 0 162 -32l-23 -63q-65 30 -143 30q-115 0 -184 -66.5t-69 -171.5q0 -79 47 -120.5t131 -41.5q54 0 98 14l25 124h-103l11 62h178l-44 -234q-87 -31 -188 -31z" />
    <glyph glyph-name="h.smcp" horiz-adv-x="616" 
d="M39 0l97 503h75l-40 -207h299l40 207h76l-97 -503h-76l45 235h-299l-45 -235h-75z" />
    <glyph glyph-name="i.smcp" horiz-adv-x="241" 
d="M39 0l97 503h75l-97 -503h-75z" />
    <glyph glyph-name="j.smcp" horiz-adv-x="256" 
d="M-23 -84l-23 53q60 25 85 55t37 95l73 384h73l-71 -383q-17 -87 -55 -132t-119 -72z" />
    <glyph glyph-name="k.smcp" horiz-adv-x="525" 
d="M449 0q-24 -6 -47 -6q-26 0 -40 10.5t-32 35.5l-152 221l245 242h94l-256 -244l131 -185q10 -13 17.5 -17t24.5 -4h15v-53zM39 0l97 503h75l-97 -503h-75z" />
    <glyph glyph-name="l.smcp" horiz-adv-x="448" 
d="M39 0l97 503h75l-85 -440h246l-11 -63h-322z" />
    <glyph glyph-name="m.smcp" horiz-adv-x="710" 
d="M39 0l97 503h84l108 -389l263 389h88l-96 -503h-74l72 369l-251 -369h-43l-102 368l-71 -368h-75z" />
    <glyph glyph-name="n.smcp" horiz-adv-x="597" 
d="M39 0l97 503h79l209 -365l68 365h75l-97 -503h-48l-231 396l-77 -396h-75z" />
    <glyph glyph-name="o.smcp" horiz-adv-x="612" 
d="M570 309q0 -133 -78.5 -228t-217.5 -95q-101 0 -159.5 57.5t-58.5 149.5q0 133 78.5 228.5t217.5 95.5q101 0 159.5 -57.5t58.5 -150.5zM283 50q94 0 151.5 73.5t57.5 177.5q0 74 -39.5 113t-110.5 39q-94 0 -151.5 -74t-57.5 -178q0 -73 39.5 -112t110.5 -39z" />
    <glyph glyph-name="p.smcp" horiz-adv-x="478" 
d="M114 0h-75l97 503h163q74 0 114 -33t40 -91q0 -89 -60.5 -137t-170.5 -48h-71zM199 439l-35 -181h68q69 0 107.5 28.5t38.5 83.5q0 69 -94 69h-85z" />
    <glyph glyph-name="q.smcp" horiz-adv-x="612" 
d="M570 309q0 -121 -66 -212t-184 -108q35 -54 64 -80.5t59 -26.5h22v-52q-20 -6 -53 -6q-48 0 -89.5 43.5t-84.5 120.5q-85 10 -133.5 65.5t-48.5 139.5q0 133 78.5 228.5t217.5 95.5q101 0 159.5 -57.5t58.5 -150.5zM283 50q94 0 151.5 73.5t57.5 177.5q0 74 -39.5 113
t-110.5 39q-94 0 -151.5 -74t-57.5 -178q0 -73 39.5 -112t110.5 -39z" />
    <glyph glyph-name="r.smcp" horiz-adv-x="521" 
d="M156 216l-42 -216h-75l97 503h164q74 0 113.5 -31.5t39.5 -91.5t-40.5 -100t-111.5 -51q22 -9 42 -50l45 -98q12 -28 34 -28h22v-53q-26 -6 -56 -6q-25 0 -39.5 11.5t-26.5 39.5l-58 132q-10 21 -22.5 30t-39.5 9h-46zM199 439l-32 -160h88q52 0 87.5 25.5t35.5 68.5
q0 66 -96 66h-83z" />
    <glyph glyph-name="s.smcp" horiz-adv-x="445" 
d="M181 -14q-45 0 -93 11.5t-75 26.5l23 64q66 -38 153 -38q49 0 80 22.5t31 62.5q0 26 -26.5 47.5t-90.5 57.5q-45 25 -69.5 52.5t-24.5 69.5q0 73 55 114t136 41t136 -29l-22 -64q-48 29 -117 29q-46 0 -79 -20.5t-33 -61.5q0 -9 2 -17t9 -16t11 -13t16.5 -13t17 -10.5
l20.5 -11.5t20 -11q26 -15 42 -25.5t35.5 -27.5t29 -37t9.5 -44q0 -72 -49 -115.5t-147 -43.5z" />
    <glyph glyph-name="t.smcp" horiz-adv-x="538" 
d="M186 0l85 439h-183l12 64h441l-12 -64h-183l-85 -439h-75z" />
    <glyph glyph-name="u.smcp" horiz-adv-x="581" 
d="M254 -14q-85 0 -138.5 37t-53.5 109q0 23 4 43l63 328h76l-62 -320q-5 -30 -5 -43q0 -88 124 -88q131 0 157 131l62 320h75l-64 -340q-34 -177 -238 -177z" />
    <glyph glyph-name="v.smcp" horiz-adv-x="545" 
d="M251 126l225 377h82l-305 -503h-43l-122 503h79z" />
    <glyph glyph-name="w.smcp" horiz-adv-x="786" 
d="M516 128l200 375h80l-280 -503h-46l-62 323l-184 -323h-45l-87 503h78l56 -375l165 289l-16 86h80z" />
    <glyph glyph-name="x.smcp" horiz-adv-x="560" 
d="M5 0l234 268l-119 235h86l88 -186l157 186h92l-215 -243l138 -260h-87l-106 212l-175 -212h-93z" />
    <glyph glyph-name="y.smcp" horiz-adv-x="521" 
d="M180 0l38 201l-128 302h81l92 -239l179 239h86l-237 -304l-36 -199h-75z" />
    <glyph glyph-name="z.smcp" horiz-adv-x="529" 
d="M22 0v43l371 396h-278l12 64h382v-43l-376 -397h309l-11 -63h-409z" />
    <glyph glyph-name="aacute.smcp" horiz-adv-x="559" 
d="M400 0l-31 136h-201l-81 -136h-90l312 503h47l126 -503h-82zM314 382l-111 -186h153zM298 578l-34 20l122 167l83 -30z" />
    <glyph glyph-name="agrave.smcp" horiz-adv-x="559" 
d="M400 0l-31 136h-201l-81 -136h-90l312 503h47l126 -503h-82zM314 382l-111 -186h153zM402 596l-34 -18l-138 161l88 26z" />
    <glyph glyph-name="acircumflex.smcp" horiz-adv-x="559" 
d="M400 0l-31 136h-201l-81 -136h-90l312 503h47l126 -503h-82zM314 382l-111 -186h153zM345 762h42l77 -167l-34 -17l-76 94l-115 -94l-33 17z" />
    <glyph glyph-name="atilde.smcp" horiz-adv-x="559" 
d="M400 0l-31 136h-201l-81 -136h-90l312 503h47l126 -503h-82zM314 382l-111 -186h153zM467 741l36 -12q-36 -118 -100 -118q-21 0 -69 22t-61 22q-27 0 -48 -57l-36 12q36 118 100 118q21 0 69 -22t61 -22q27 0 48 57z" />
    <glyph glyph-name="adieresis.smcp" horiz-adv-x="559" 
d="M400 0l-31 136h-201l-81 -136h-90l312 503h47l126 -503h-82zM314 382l-111 -186h153zM293 667q0 -22 -15 -38.5t-37 -16.5t-35 14.5t-13 34.5q0 24 16 38.5t37 14.5t34 -14t13 -33zM493 667q0 -22 -15 -38.5t-37 -16.5t-35 14.5t-13 34.5q0 24 16 38.5t37 14.5t34 -14
t13 -33z" />
    <glyph glyph-name="aring.smcp" horiz-adv-x="559" 
d="M400 0l-31 136h-201l-81 -136h-90l312 503h47l126 -503h-82zM314 382l-111 -186h153zM337 574q-38 0 -61.5 21t-23.5 56q0 46 30.5 80t79.5 34q38 0 61.5 -21t23.5 -56q0 -46 -30.5 -80t-79.5 -34zM342 618q25 0 39.5 19.5t14.5 45.5q0 19 -11 28.5t-28 9.5
q-25 0 -39.5 -19.5t-14.5 -45.5q0 -19 11 -28.5t28 -9.5z" />
    <glyph glyph-name="ccedilla.smcp" horiz-adv-x="544" 
d="M342 -131q0 -43 -38.5 -73.5t-89.5 -30.5q-44 0 -79 19l14 35q29 -16 64 -16q25 0 40.5 10t15.5 29q0 39 -88 42l-4 18l82 85q-96 9 -149.5 68.5t-53.5 152.5q0 131 85.5 220t232.5 89q79 0 141 -30l-22 -63q-56 28 -120 28q-110 0 -174.5 -68t-64.5 -174
q0 -76 44.5 -116.5t126.5 -40.5q68 0 148 33l11 -64q-62 -30 -151 -35l-51 -51q41 -1 60.5 -19.5t19.5 -47.5z" />
    <glyph glyph-name="eacute.smcp" horiz-adv-x="453" 
d="M39 0l97 503h311l-11 -64h-237l-28 -144h190l-10 -62h-192l-33 -170h239l-11 -63h-315zM258 578l-34 20l122 167l83 -30z" />
    <glyph glyph-name="egrave.smcp" horiz-adv-x="453" 
d="M39 0l97 503h311l-11 -64h-237l-28 -144h190l-10 -62h-192l-33 -170h239l-11 -63h-315zM341 596l-34 -18l-138 161l88 26z" />
    <glyph glyph-name="ecircumflex.smcp" horiz-adv-x="453" 
d="M39 0l97 503h311l-11 -64h-237l-28 -144h190l-10 -62h-192l-33 -170h239l-11 -63h-315zM304 762h42l77 -167l-34 -17l-76 94l-115 -94l-33 17z" />
    <glyph glyph-name="edieresis.smcp" horiz-adv-x="453" 
d="M39 0l97 503h311l-11 -64h-237l-28 -144h190l-10 -62h-192l-33 -170h239l-11 -63h-315zM258 667q0 -22 -15 -38.5t-37 -16.5t-35 14.5t-13 34.5q0 24 16 38.5t37 14.5t34 -14t13 -33zM458 667q0 -22 -15 -38.5t-37 -16.5t-35 14.5t-13 34.5q0 24 16 38.5t37 14.5t34 -14
t13 -33z" />
    <glyph glyph-name="iacute.smcp" horiz-adv-x="241" 
d="M39 0l97 503h75l-97 -503h-75zM181 578l-34 20l122 167l83 -30z" />
    <glyph glyph-name="igrave.smcp" horiz-adv-x="241" 
d="M39 0l97 503h75l-97 -503h-75zM227 596l-34 -18l-138 161l88 26z" />
    <glyph glyph-name="icircumflex.smcp" horiz-adv-x="241" 
d="M39 0l97 503h75l-97 -503h-75zM196 762h42l77 -167l-34 -17l-76 94l-115 -94l-33 17z" />
    <glyph glyph-name="idieresis.smcp" horiz-adv-x="241" 
d="M39 0l97 503h75l-97 -503h-75zM142 667q0 -22 -15 -38.5t-37 -16.5t-35 14.5t-13 34.5q0 24 16 38.5t37 14.5t34 -14t13 -33zM342 667q0 -22 -15 -38.5t-37 -16.5t-35 14.5t-13 34.5q0 24 16 38.5t37 14.5t34 -14t13 -33z" />
    <glyph glyph-name="dotlessi.smcp" horiz-adv-x="241" 
d="M39 0l97 503h75l-97 -503h-75z" />
    <glyph glyph-name="lslash.smcp" horiz-adv-x="461" 
d="M20 188l10 55l72 17l47 243h75l-44 -225l126 30l-10 -54l-126 -30l-31 -161h246l-10 -63h-323l39 205z" />
    <glyph glyph-name="ntilde.smcp" horiz-adv-x="597" 
d="M39 0l97 503h79l209 -365l68 365h75l-97 -503h-48l-231 396l-77 -396h-75zM496 741l36 -12q-36 -118 -100 -118q-21 0 -69 22t-61 22q-27 0 -48 -57l-36 12q36 118 100 118q21 0 69 -22t61 -22q27 0 48 57z" />
    <glyph glyph-name="oacute.smcp" horiz-adv-x="612" 
d="M570 309q0 -133 -78.5 -228t-217.5 -95q-101 0 -159.5 57.5t-58.5 149.5q0 133 78.5 228.5t217.5 95.5q101 0 159.5 -57.5t58.5 -150.5zM283 50q94 0 151.5 73.5t57.5 177.5q0 74 -39.5 113t-110.5 39q-94 0 -151.5 -74t-57.5 -178q0 -73 39.5 -112t110.5 -39zM317 578
l-34 20l122 167l83 -30z" />
    <glyph glyph-name="ograve.smcp" horiz-adv-x="612" 
d="M570 309q0 -133 -78.5 -228t-217.5 -95q-101 0 -159.5 57.5t-58.5 149.5q0 133 78.5 228.5t217.5 95.5q101 0 159.5 -57.5t58.5 -150.5zM283 50q94 0 151.5 73.5t57.5 177.5q0 74 -39.5 113t-110.5 39q-94 0 -151.5 -74t-57.5 -178q0 -73 39.5 -112t110.5 -39zM413 596
l-34 -18l-138 161l88 26z" />
    <glyph glyph-name="ocircumflex.smcp" horiz-adv-x="612" 
d="M570 309q0 -133 -78.5 -228t-217.5 -95q-101 0 -159.5 57.5t-58.5 149.5q0 133 78.5 228.5t217.5 95.5q101 0 159.5 -57.5t58.5 -150.5zM283 50q94 0 151.5 73.5t57.5 177.5q0 74 -39.5 113t-110.5 39q-94 0 -151.5 -74t-57.5 -178q0 -73 39.5 -112t110.5 -39zM374 762
h42l77 -167l-34 -17l-76 94l-115 -94l-33 17z" />
    <glyph glyph-name="otilde.smcp" horiz-adv-x="612" 
d="M570 309q0 -133 -78.5 -228t-217.5 -95q-101 0 -159.5 57.5t-58.5 149.5q0 133 78.5 228.5t217.5 95.5q101 0 159.5 -57.5t58.5 -150.5zM283 50q94 0 151.5 73.5t57.5 177.5q0 74 -39.5 113t-110.5 39q-94 0 -151.5 -74t-57.5 -178q0 -73 39.5 -112t110.5 -39zM485 741
l36 -12q-36 -118 -100 -118q-21 0 -69 22t-61 22q-27 0 -48 -57l-36 12q36 118 100 118q21 0 69 -22t61 -22q27 0 48 57z" />
    <glyph glyph-name="odieresis.smcp" horiz-adv-x="612" 
d="M570 309q0 -133 -78.5 -228t-217.5 -95q-101 0 -159.5 57.5t-58.5 149.5q0 133 78.5 228.5t217.5 95.5q101 0 159.5 -57.5t58.5 -150.5zM283 50q94 0 151.5 73.5t57.5 177.5q0 74 -39.5 113t-110.5 39q-94 0 -151.5 -74t-57.5 -178q0 -73 39.5 -112t110.5 -39zM326 667
q0 -22 -15 -38.5t-37 -16.5t-35 14.5t-13 34.5q0 24 16 38.5t37 14.5t34 -14t13 -33zM526 667q0 -22 -15 -38.5t-37 -16.5t-35 14.5t-13 34.5q0 24 16 38.5t37 14.5t34 -14t13 -33z" />
    <glyph glyph-name="oslash.smcp" horiz-adv-x="612" 
d="M570 309q0 -133 -78.5 -228t-217.5 -95q-78 0 -133 36l-43 -48h-71l75 82q-46 55 -46 137q0 133 78.5 228.5t217.5 95.5q77 0 133 -37l44 48h69l-74 -82q46 -55 46 -137zM133 201q0 -53 20 -88l284 314q-37 26 -95 26q-94 0 -151.5 -74t-57.5 -178zM283 50
q94 0 151.5 73.5t57.5 177.5q0 52 -20 87l-283 -313q35 -25 94 -25z" />
    <glyph glyph-name="scaron.smcp" horiz-adv-x="445" 
d="M181 -14q-45 0 -93 11.5t-75 26.5l23 64q66 -38 153 -38q49 0 80 22.5t31 62.5q0 26 -26.5 47.5t-90.5 57.5q-45 25 -69.5 52.5t-24.5 69.5q0 73 55 114t136 41t136 -29l-22 -64q-48 29 -117 29q-46 0 -79 -20.5t-33 -61.5q0 -9 2 -17t9 -16t11 -13t16.5 -13t17 -10.5
l20.5 -11.5t20 -11q26 -15 42 -25.5t35.5 -27.5t29 -37t9.5 -44q0 -72 -49 -115.5t-147 -43.5zM296 583h-42l-77 167l34 17l76 -94l115 94l33 -17z" />
    <glyph glyph-name="uacute.smcp" horiz-adv-x="581" 
d="M254 -14q-85 0 -138.5 37t-53.5 109q0 23 4 43l63 328h76l-62 -320q-5 -30 -5 -43q0 -88 124 -88q131 0 157 131l62 320h75l-64 -340q-34 -177 -238 -177zM317 578l-34 20l122 167l83 -30z" />
    <glyph glyph-name="ugrave.smcp" horiz-adv-x="581" 
d="M254 -14q-85 0 -138.5 37t-53.5 109q0 23 4 43l63 328h76l-62 -320q-5 -30 -5 -43q0 -88 124 -88q131 0 157 131l62 320h75l-64 -340q-34 -177 -238 -177zM375 596l-34 -18l-138 161l88 26z" />
    <glyph glyph-name="ucircumflex.smcp" horiz-adv-x="581" 
d="M254 -14q-85 0 -138.5 37t-53.5 109q0 23 4 43l63 328h76l-62 -320q-5 -30 -5 -43q0 -88 124 -88q131 0 157 131l62 320h75l-64 -340q-34 -177 -238 -177zM362 762h42l77 -167l-34 -17l-76 94l-115 -94l-33 17z" />
    <glyph glyph-name="udieresis.smcp" horiz-adv-x="581" 
d="M254 -14q-85 0 -138.5 37t-53.5 109q0 23 4 43l63 328h76l-62 -320q-5 -30 -5 -43q0 -88 124 -88q131 0 157 131l62 320h75l-64 -340q-34 -177 -238 -177zM314 667q0 -22 -15 -38.5t-37 -16.5t-35 14.5t-13 34.5q0 24 16 38.5t37 14.5t34 -14t13 -33zM514 667
q0 -22 -15 -38.5t-37 -16.5t-35 14.5t-13 34.5q0 24 16 38.5t37 14.5t34 -14t13 -33z" />
    <glyph glyph-name="yacute.smcp" horiz-adv-x="521" 
d="M180 0l38 201l-128 302h81l92 -239l179 239h86l-237 -304l-36 -199h-75zM290 578l-34 20l122 167l83 -30z" />
    <glyph glyph-name="ydieresis.smcp" horiz-adv-x="521" 
d="M180 0l38 201l-128 302h81l92 -239l179 239h86l-237 -304l-36 -199h-75zM274 667q0 -22 -15 -38.5t-37 -16.5t-35 14.5t-13 34.5q0 24 16 38.5t37 14.5t34 -14t13 -33zM474 667q0 -22 -15 -38.5t-37 -16.5t-35 14.5t-13 34.5q0 24 16 38.5t37 14.5t34 -14t13 -33z" />
    <glyph glyph-name="zcaron.smcp" horiz-adv-x="529" 
d="M22 0v43l371 396h-278l12 64h382v-43l-376 -397h309l-11 -63h-409zM321 563h-42l-77 167l34 17l76 -94l115 94l33 -17z" />
    <glyph glyph-name="eth.smcp" horiz-adv-x="609" 
d="M56 0l45 238h-69l10 51h69l41 214h170q120 0 182.5 -53t62.5 -159q0 -132 -78 -211.5t-239 -79.5h-194zM216 439l-30 -150h119l-9 -51h-120l-35 -175h110q112 0 175 58.5t63 168.5q0 149 -169 149h-104z" />
    <glyph glyph-name="thorn.smcp" horiz-adv-x="478" 
d="M39 0l97 503h75l-19 -95h87q74 0 114 -33t40 -91q0 -89 -60.5 -137t-170.5 -48h-69l-19 -99h-75zM180 344l-35 -181h67q69 0 107.5 28.5t38.5 83.5q0 69 -94 69h-84z" />
    <glyph glyph-name="ae.smcp" horiz-adv-x="769" 
d="M357 0l26 136h-172l-124 -136h-94l457 503h313l-11 -64h-237l-27 -144h190l-11 -62h-191l-33 -170h239l-11 -63h-314zM430 375l-164 -179h129z" />
    <glyph glyph-name="oe.smcp" horiz-adv-x="743" 
d="M655 63l-11 -63h-370q-107 0 -162.5 55t-55.5 144q0 133 82 218.5t228 85.5h371l-11 -64h-237l-28 -144h190l-10 -62h-192l-33 -170h239zM340 62l74 379h-60q-106 0 -163.5 -69t-57.5 -168q0 -66 38.5 -104t111.5 -38h57z" />
    <glyph glyph-name="germandbls.smcp" horiz-adv-x="890" 
d="M181 -14q-45 0 -93 11.5t-75 26.5l23 64q66 -38 153 -38q49 0 80 22.5t31 62.5q0 26 -26.5 47.5t-90.5 57.5q-45 25 -69.5 52.5t-24.5 69.5q0 73 55 114t136 41t136 -29l-22 -64q-48 29 -117 29q-46 0 -79 -20.5t-33 -61.5q0 -9 2 -17t9 -16t11 -13t16.5 -13t17 -10.5
l20.5 -11.5t20 -11q26 -15 42 -25.5t35.5 -27.5t29 -37t9.5 -44q0 -72 -49 -115.5t-147 -43.5zM626 -14q-45 0 -93 11.5t-75 26.5l23 64q67 -38 153 -38q49 0 80 22.5t31 62.5q0 26 -26.5 47.5t-90.5 57.5q-45 25 -69.5 52.5t-24.5 69.5q0 73 55 114t136 41t136 -29l-22 -64
q-48 29 -117 29q-46 0 -79 -20.5t-33 -61.5q0 -9 2 -17t9 -16t11 -13t16.5 -13t17 -10.5l20.5 -11.5t20 -11q26 -15 42 -25.5t35.5 -27.5t29 -37t9.5 -44q0 -72 -49 -115.5t-147 -43.5z" />
    <glyph glyph-name="fi.smcp" horiz-adv-x="685" 
d="M39 0l97 503h310l-11 -64h-236l-29 -147h195l-11 -62h-195l-45 -230h-75zM483 0l97 503h75l-97 -503h-75z" />
    <glyph glyph-name="fl.smcp" horiz-adv-x="892" 
d="M39 0l97 503h310l-11 -64h-236l-29 -147h195l-11 -62h-195l-45 -230h-75zM483 0l97 503h75l-85 -440h246l-11 -63h-322z" />
    <glyph glyph-name="ampersand.c2sc" horiz-adv-x="594" 
d="M444 -8q-53 0 -84 47q-80 -53 -175 -53q-64 0 -106 34t-42 90q0 116 163 182q-35 58 -35 99q0 56 41.5 91t109.5 35q59 0 96 -27t37 -73q0 -92 -152 -150l84 -130q58 62 81 149h70q-13 -52 -45 -108t-73 -94q11 -17 19.5 -22t29.5 -5h33v-58q-24 -7 -52 -7zM194 48
q70 0 133 45l-96 150q-51 -19 -87.5 -52t-36.5 -74q0 -33 22.5 -51t64.5 -18zM237 396q0 -31 31 -83q40 13 74.5 39t34.5 58q0 23 -18.5 36t-46.5 13q-30 0 -52.5 -15.5t-22.5 -47.5z" />
    <glyph glyph-name="zero.tosf" 
d="M241 -14q-92 0 -143 55.5t-51 152.5q0 141 72 229.5t190 88.5q92 0 143 -55.5t51 -152.5q0 -141 -72 -229.5t-190 -88.5zM247 49q74 0 126.5 67.5t52.5 188.5q0 66 -30 104.5t-94 38.5q-74 0 -127 -67.5t-53 -188.5q0 -65 30.5 -104t94.5 -39z" />
    <glyph glyph-name="one.tosf" 
d="M432 0h-370l11 56l150 4l67 371l-154 -16l10 56l189 37h44l-79 -448l143 -4z" />
    <glyph glyph-name="two.tosf" 
d="M40 0v31l59 35t62.5 39.5t67.5 47t58.5 48.5t52.5 54t32 53.5t14 56.5q0 36 -25 57.5t-66 21.5q-95 0 -180 -77l-33 57q42 38 100.5 63t116.5 25q72 0 119.5 -37t47.5 -106q0 -45 -24.5 -90.5t-65 -84.5t-80 -68t-82.5 -54h259l-16 -72h-417z" />
    <glyph glyph-name="three.tosf" 
d="M437 39q0 -89 -66 -145t-157 -56q-119 0 -208 77l42 53q76 -64 166 -64q61 0 102 33t41 95q0 34 -17.5 58t-47 35t-56 15t-55.5 4h-41l11 63q102 6 169.5 46t67.5 107q0 39 -29 61.5t-68 22.5q-77 0 -158 -69l-31 54q38 36 93 59.5t112 23.5q70 0 115 -39.5t45 -103.5
q0 -65 -41.5 -112.5t-108.5 -71.5q51 -13 85.5 -52t34.5 -94z" />
    <glyph glyph-name="four.tosf" 
d="M471 508l-71 -400h111l-12 -67h-111l-32 -185h-77l34 185h-305v32l410 435h53zM373 366l-240 -258h192z" />
    <glyph glyph-name="five.tosf" 
d="M452 54q0 -97 -70.5 -156.5t-168.5 -59.5q-127 0 -203 74l48 55q26 -27 67 -44t83 -17q74 0 119 38.5t45 102.5q0 65 -53 92.5t-130 27.5h-105l88 331h317l-16 -71h-249l-48 -190h35q103 0 172 -45.5t69 -137.5z" />
    <glyph glyph-name="six.tosf" 
d="M519 596q-255 -54 -346 -228q71 34 146 34q81 0 130 -46.5t49 -118.5q0 -103 -73 -177t-180 -74q-89 0 -139.5 58.5t-50.5 150.5t37.5 173t101 139.5t144.5 97.5t171 55zM305 333q-81 0 -161 -41q-11 -41 -11 -92q0 -71 30 -109.5t85 -38.5q68 0 119 49.5t51 124.5
q0 53 -30 80t-83 27z" />
    <glyph glyph-name="seven.tosf" 
d="M32 -148l394 574h-336l17 72h415v-45l-404 -601h-86z" />
    <glyph glyph-name="eight.tosf" 
d="M45 146q0 124 170 196q-89 57 -89 135q0 82 63 132.5t154 50.5q77 0 128 -39t51 -104q0 -63 -46 -108.5t-112 -68.5q53 -33 83 -70.5t30 -90.5q0 -85 -62.5 -139t-173.5 -54q-81 0 -138.5 44t-57.5 116zM399 171q0 37 -32.5 70t-91.5 67q-150 -49 -150 -156
q0 -45 36.5 -73.5t88.5 -28.5q64 0 106.5 34t42.5 87zM205 484q0 -30 22.5 -52.5t74.5 -54.5q55 13 99 48t44 86q0 40 -30.5 62t-80.5 22q-54 0 -91.5 -29.5t-37.5 -81.5z" />
    <glyph glyph-name="nine.tosf" 
d="M34 -98q255 55 345 227q-68 -33 -145 -33q-81 0 -130 46.5t-49 118.5q0 103 73 177t180 74q89 0 139.5 -58.5t50.5 -150.5t-37.5 -173t-101 -139.5t-144.5 -97.5t-171 -55zM248 165q83 0 161 40q11 47 11 93q0 71 -30 109.5t-85 38.5q-68 0 -119 -49.5t-51 -124.5
q0 -53 30 -80t83 -27z" />
    <glyph glyph-name="zero.lf" 
d="M238 50q55 0 98 37.5t67 96t36 121t12 121.5q0 94 -27 132t-84 38q-55 0 -97.5 -38.5t-65.5 -98t-34.5 -121t-11.5 -118.5q0 -170 107 -170zM232 -14q-84 0 -131.5 63t-47.5 172q0 72 18 146.5t52 141t93.5 109t134.5 42.5q89 0 133.5 -61.5t44.5 -170.5q0 -75 -17 -149
t-50.5 -141.5t-93.5 -109.5t-136 -42z" />
    <glyph glyph-name="one.lf" horiz-adv-x="370" 
d="M134 0l102 575l-149 -16l10 56l184 37h44l-114 -652h-77z" />
    <glyph glyph-name="two.lf" horiz-adv-x="540" 
d="M11 0v31l85 70l74.5 63t72 64l58 57t52 58.5l34.5 52t26 55t7 50.5q0 45 -25 68t-66 23q-91 0 -185 -76l-34 58q107 86 223 86q78 0 122.5 -37.5t44.5 -114.5q0 -34 -13 -71t-29.5 -68t-49 -69t-55.5 -62.5t-65.5 -62l-61.5 -53.5l-61 -50h284l-16 -72h-422z" />
    <glyph glyph-name="three.lf" horiz-adv-x="520" 
d="M450 187q0 -89 -66 -145t-157 -56q-119 0 -208 77l42 53q76 -64 166 -64q61 0 102 33t41 95q0 34 -17.5 58t-47 35t-56 15t-55.5 4h-41l11 63q102 6 169.5 46t67.5 107q0 39 -29 61.5t-68 22.5q-78 0 -158 -69l-31 54q38 36 93 59.5t112 23.5q70 0 115 -39.5t45 -103.5
q0 -65 -41.5 -112.5t-108.5 -71.5q51 -13 85.5 -52t34.5 -94z" />
    <glyph glyph-name="four.lf" 
d="M484 652l-71 -400h111l-12 -67h-111l-32 -185h-77l34 185h-305v32l410 435h53zM386 510l-240 -258h192z" />
    <glyph glyph-name="five.lf" horiz-adv-x="530" 
d="M470 202q0 -97 -70.5 -156.5t-168.5 -59.5q-127 0 -203 74l48 55q26 -27 67 -44t83 -17q74 0 119 38.5t45 102.5q0 65 -53 92.5t-130 27.5h-105l88 331h317l-16 -71h-249l-48 -190h35q103 0 172 -45.5t69 -137.5z" />
    <glyph glyph-name="six.lf" 
d="M519 596q-255 -54 -346 -228q71 34 146 34q81 0 130 -46.5t49 -118.5q0 -103 -73 -177t-180 -74q-89 0 -139.5 58.5t-50.5 150.5t37.5 173t101 139.5t144.5 97.5t171 55zM305 333q-81 0 -161 -41q-11 -41 -11 -92q0 -71 30 -109.5t85 -38.5q68 0 119 49.5t51 124.5
q0 53 -30 80t-83 27z" />
    <glyph glyph-name="seven.lf" horiz-adv-x="530" 
d="M57 0l394 574h-336l17 72h415v-45l-404 -601h-86z" />
    <glyph glyph-name="eight.lf" 
d="M45 146q0 124 170 196q-89 57 -89 135q0 82 63 132.5t154 50.5q77 0 128 -39t51 -104q0 -63 -46 -108.5t-112 -68.5q53 -33 83 -70.5t30 -90.5q0 -85 -62.5 -139t-173.5 -54q-81 0 -138.5 44t-57.5 116zM399 171q0 37 -32.5 70t-91.5 67q-150 -49 -150 -156
q0 -45 36.5 -73.5t88.5 -28.5q64 0 106.5 34t42.5 87zM205 484q0 -30 22.5 -52.5t74.5 -54.5q55 13 99 48t44 86q0 40 -30.5 62t-80.5 22q-54 0 -91.5 -29.5t-37.5 -81.5z" />
    <glyph glyph-name="nine.lf" 
d="M59 50q255 55 345 227q-68 -33 -145 -33q-81 0 -130 46.5t-49 118.5q0 103 73 177t180 74q89 0 139.5 -58.5t50.5 -150.5t-37.5 -173t-101 -139.5t-144.5 -97.5t-171 -55zM273 313q83 0 161 40q11 47 11 93q0 71 -30 109.5t-85 38.5q-68 0 -119 -49.5t-51 -124.5
q0 -53 30 -80t83 -27z" />
    <glyph glyph-name="zero.osf" 
d="M241 -14q-92 0 -143 55.5t-51 152.5q0 141 72 229.5t190 88.5q92 0 143 -55.5t51 -152.5q0 -141 -72 -229.5t-190 -88.5zM247 49q74 0 126.5 67.5t52.5 188.5q0 66 -30 104.5t-94 38.5q-74 0 -127 -67.5t-53 -188.5q0 -65 30.5 -104t94.5 -39z" />
    <glyph glyph-name="one.osf" horiz-adv-x="360" 
d="M133 0l77 431l-150 -16l10 56l185 37h44l-89 -508h-77z" />
    <glyph glyph-name="two.osf" horiz-adv-x="530" 
d="M30 0v31l59 35t62.5 39.5t67.5 47t58.5 48.5t52.5 54t32 53.5t14 56.5q0 36 -25 57.5t-66 21.5q-95 0 -180 -77l-33 57q42 38 100.5 63t116.5 25q72 0 119.5 -37t47.5 -106q0 -45 -24.5 -90.5t-65 -84.5t-80 -68t-82.5 -54h259l-16 -72h-417z" />
    <glyph glyph-name="three.osf" horiz-adv-x="530" 
d="M427 39q0 -89 -66 -145t-157 -56q-119 0 -208 77l42 53q76 -64 166 -64q61 0 102 33t41 95q0 34 -17.5 58t-47 35t-56 15t-55.5 4h-41l11 63q102 6 169.5 46t67.5 107q0 39 -29 61.5t-68 22.5q-77 0 -158 -69l-31 54q38 36 93 59.5t112 23.5q70 0 115 -39.5t45 -103.5
q0 -65 -41.5 -112.5t-108.5 -71.5q51 -13 85.5 -52t34.5 -94z" />
    <glyph glyph-name="four.osf" 
d="M471 508l-71 -400h111l-12 -67h-111l-32 -185h-77l34 185h-305v32l410 435h53zM373 366l-240 -258h192z" />
    <glyph glyph-name="five.osf" horiz-adv-x="530" 
d="M442 54q0 -97 -70.5 -156.5t-168.5 -59.5q-127 0 -203 74l48 55q26 -27 67 -44t83 -17q74 0 119 38.5t45 102.5q0 65 -53 92.5t-130 27.5h-105l88 331h317l-16 -71h-249l-48 -190h35q103 0 172 -45.5t69 -137.5z" />
    <glyph glyph-name="six.osf" 
d="M519 596q-255 -54 -346 -228q71 34 146 34q81 0 130 -46.5t49 -118.5q0 -103 -73 -177t-180 -74q-89 0 -139.5 58.5t-50.5 150.5t37.5 173t101 139.5t144.5 97.5t171 55zM305 333q-81 0 -161 -41q-11 -41 -11 -92q0 -71 30 -109.5t85 -38.5q68 0 119 49.5t51 124.5
q0 53 -30 80t-83 27z" />
    <glyph glyph-name="seven.osf" horiz-adv-x="530" 
d="M22 -148l394 574h-336l17 72h415v-45l-404 -601h-86z" />
    <glyph glyph-name="eight.osf" 
d="M45 146q0 124 170 196q-89 57 -89 135q0 82 63 132.5t154 50.5q77 0 128 -39t51 -104q0 -63 -46 -108.5t-112 -68.5q53 -33 83 -70.5t30 -90.5q0 -85 -62.5 -139t-173.5 -54q-81 0 -138.5 44t-57.5 116zM399 171q0 37 -32.5 70t-91.5 67q-150 -49 -150 -156
q0 -45 36.5 -73.5t88.5 -28.5q64 0 106.5 34t42.5 87zM205 484q0 -30 22.5 -52.5t74.5 -54.5q55 13 99 48t44 86q0 40 -30.5 62t-80.5 22q-54 0 -91.5 -29.5t-37.5 -81.5z" />
    <glyph glyph-name="nine.osf" 
d="M34 -98q255 55 345 227q-68 -33 -145 -33q-81 0 -130 46.5t-49 118.5q0 103 73 177t180 74q89 0 139.5 -58.5t50.5 -150.5t-37.5 -173t-101 -139.5t-144.5 -97.5t-171 -55zM248 165q83 0 161 40q11 47 11 93q0 71 -30 109.5t-85 38.5q-68 0 -119 -49.5t-51 -124.5
q0 -53 30 -80t83 -27z" />
    <glyph glyph-name="acute.case" horiz-adv-x="400" 
d="M216 726l-26 29l156 117l70 -55z" />
    <glyph glyph-name="grave.case" horiz-adv-x="400" 
d="M400 755l-26 -29l-200 91l70 55z" />
    <glyph glyph-name="circumflex.case" horiz-adv-x="400" 
d="M291 885h42l77 -142l-34 -17l-76 74l-115 -74l-33 17z" />
    <glyph glyph-name="tilde.case" horiz-adv-x="400" 
d="M419 877l36 -12q-36 -118 -100 -118q-21 0 -69 22t-61 22q-27 0 -48 -57l-36 12q36 118 100 118q21 0 69 -22t61 -22q27 0 48 57z" />
    <glyph glyph-name="dieresis.case" horiz-adv-x="400" 
d="M242 810q0 -22 -15 -38.5t-37 -16.5t-35 14.5t-13 34.5q0 24 16 38.5t37 14.5t34 -14t13 -33zM442 810q0 -22 -15 -38.5t-37 -16.5t-35 14.5t-13 34.5q0 24 16 38.5t37 14.5t34 -14t13 -33z" />
    <glyph glyph-name="ring.case" horiz-adv-x="400" 
d="M280 714q-38 0 -61.5 21t-23.5 56q0 46 30.5 80t79.5 34q38 0 61.5 -21t23.5 -56q0 -46 -30.5 -80t-79.5 -34zM285 758q25 0 39.5 19.5t14.5 45.5q0 19 -11 28.5t-28 9.5q-25 0 -39.5 -19.5t-14.5 -45.5q0 -19 11 -28.5t28 -9.5z" />
    <glyph glyph-name="caron.case" horiz-adv-x="400" 
d="M294 733h-42l-77 142l34 17l76 -74l115 74l33 -17z" />
    <glyph glyph-name="macron.case" horiz-adv-x="400" 
d="M432 815l-10 -60h-270l10 60h270z" />
    <glyph glyph-name="breve.case" horiz-adv-x="400" 
d="M293 792q40 0 72 28t43 69l41 -7q-13 -70 -57.5 -111t-104.5 -41q-51 0 -81.5 30.5t-30.5 84.5q0 20 4 37l40 7v-11q0 -39 18 -62.5t56 -23.5z" />
    <glyph glyph-name="hungarumlaut.case" horiz-adv-x="400" 
d="M172 718l-32 13l84 168l80 -43zM332 718l-32 13l84 168l80 -43z" />
    <glyph glyph-name="dotaccent.case" horiz-adv-x="400" 
d="M345 809q0 -23 -15.5 -40.5t-39.5 -17.5q-23 0 -37 15t-14 37q0 25 17 40.5t39 15.5t36 -15t14 -35z" />
    <glyph glyph-name="acute.smcp" horiz-adv-x="400" 
d="M209 578l-34 20l122 167l83 -30z" />
    <glyph glyph-name="grave.smcp" horiz-adv-x="400" 
d="M345 596l-34 -18l-138 161l88 26z" />
    <glyph glyph-name="circumflex.smcp" horiz-adv-x="400" 
d="M269 762h42l77 -167l-34 -17l-76 94l-115 -94l-33 17z" />
    <glyph glyph-name="tilde.smcp" horiz-adv-x="400" 
d="M393 741l36 -12q-36 -118 -100 -118q-21 0 -69 22t-61 22q-27 0 -48 -57l-36 12q36 118 100 118q21 0 69 -22t61 -22q27 0 48 57z" />
    <glyph glyph-name="dieresis.smcp" horiz-adv-x="400" 
d="M227 667q0 -22 -15 -38.5t-37 -16.5t-35 14.5t-13 34.5q0 24 16 38.5t37 14.5t34 -14t13 -33zM427 667q0 -22 -15 -38.5t-37 -16.5t-35 14.5t-13 34.5q0 24 16 38.5t37 14.5t34 -14t13 -33z" />
    <glyph glyph-name="ring.smcp" horiz-adv-x="400" 
d="M270 574q-38 0 -61.5 21t-23.5 56q0 46 30.5 80t79.5 34q38 0 61.5 -21t23.5 -56q0 -46 -30.5 -80t-79.5 -34zM275 618q25 0 39.5 19.5t14.5 45.5q0 19 -11 28.5t-28 9.5q-25 0 -39.5 -19.5t-14.5 -45.5q0 -19 11 -28.5t28 -9.5z" />
    <glyph glyph-name="caron.smcp" horiz-adv-x="400" 
d="M274 583h-42l-77 167l34 17l76 -94l115 94l33 -17z" />
    <glyph glyph-name="macron.smcp" horiz-adv-x="400" 
d="M415 676l-10 -60h-270l10 60h270z" />
    <glyph glyph-name="breve.smcp" horiz-adv-x="400" 
d="M273 652q40 0 72 28t43 69l41 -7q-13 -70 -57.5 -111t-104.5 -41q-51 0 -81.5 30.5t-30.5 84.5q0 20 4 37l40 7v-11q0 -39 18 -62.5t56 -23.5z" />
    <glyph glyph-name="hungarumlaut.smcp" horiz-adv-x="400" 
d="M140 579l-30 17l104 164l72 -43zM300 579l-30 17l104 164l72 -43z" />
    <glyph glyph-name="dotaccent.smcp" horiz-adv-x="400" 
d="M325 667q0 -23 -15.5 -40.5t-39.5 -17.5q-23 0 -37 15t-14 37q0 25 17 40.5t39 15.5t36 -15t14 -35z" />
    </font>
</defs>
</svg>
